<svg width="149" height="165" viewBox="0 0 149 165" fill="none" xmlns="http://www.w3.org/2000/svg">
<g filter="url(#filter0_d_615_1502)">
<path d="M138.5 21C135.5 12.5 129.963 9.01367 126.463 7.01371C123.333 5.22491 117.63 3.84701 115.463 4.01367C105.463 5.21367 90.63 24.847 84.4633 34.5137C81.6633 35.7137 74.9633 42.0137 71.9633 45.0137L11.9631 106.014C3.96313 116.513 8.46329 131.133 21.9631 143.014C34.4627 154.014 52.1298 153.68 59.9631 151.514C78.9631 134.68 117.5 91 127.963 77.0137C132.711 70.6675 137.835 60.5041 140 50.5M138.5 21C140.139 25.6432 142.607 38.4561 140 50.5M138.5 21L140 50.5" stroke="white" stroke-width="7" shape-rendering="crispEdges"/>
</g>
<path d="M71.9633 45.0137L11.9631 106.014C25.7965 105.68 54.7631 114.314 59.9631 151.514C78.9631 134.68 116.463 95.5137 127.963 77.0137C136.63 65.5137 149.963 37.0821 135.963 15.4821C136.239 16.3201 136.27 17.1705 135.963 18.0136C131.297 27.6802 120.063 47.6136 112.463 50.0136C105.463 49.347 90.0633 45.3138 84.4633 34.5137C81.6633 35.7137 74.9633 42.0137 71.9633 45.0137Z" fill="#FFE2C0"/>
<path d="M115.463 4.01367C105.463 5.21367 90.63 24.847 84.4633 34.5137C90.0633 45.3138 105.463 49.347 112.463 50.0136C120.063 47.6136 131.297 27.6802 135.963 18.0136C136.27 17.1705 136.239 16.3201 135.963 15.4821C134.801 11.9463 129.293 8.63047 126.463 7.01371C123.333 5.22491 117.63 3.84701 115.463 4.01367Z" fill="white"/>
<path d="M11.9631 106.014L71.9633 45.0137C74.9633 42.0137 81.6633 35.7137 84.4633 34.5137M11.9631 106.014C25.7965 105.68 54.7631 114.314 59.9631 151.514M11.9631 106.014C3.96313 116.513 8.46329 131.133 21.9631 143.014C34.4627 154.014 52.1298 153.68 59.9631 151.514M84.4633 34.5137C90.63 24.847 105.463 5.21367 115.463 4.01367C117.63 3.84701 123.333 5.22491 126.463 7.01371M84.4633 34.5137C90.0633 45.3138 105.463 49.347 112.463 50.0136C120.063 47.6136 131.297 27.6802 135.963 18.0136M126.463 7.01371C129.963 9.01367 137.563 13.6136 135.963 18.0136M126.463 7.01371C129.293 8.63047 134.801 11.9463 135.963 15.4821M135.963 18.0136C136.27 17.1705 136.239 16.3201 135.963 15.4821M59.9631 151.514C78.9631 134.68 116.463 95.5137 127.963 77.0137C136.63 65.5137 149.963 37.0821 135.963 15.4821" stroke="black"/>
<path d="M58.9999 150.839C53.9964 115.004 25.8107 106.679 12.5 107C4.80225 117.114 9.44577 131.206 22.4356 142.651C34.4629 153.247 51.4625 152.926 58.9999 150.839Z" fill="#F65F86" stroke="#F65F86"/>
<path d="M46.4998 147C47.9998 146.667 50.6998 144.9 49.4998 140.5C48.3332 131.667 32 109.5 16.9998 114.5C12.5 115.5 11.0998 122.3 15.4998 129.5C20.9998 138.5 30.4997 145 41.4997 147" stroke="black" stroke-linecap="round"/>
<path d="M31 123C35.8334 126.333 44.6 134.5 41 140.5C39 142 33.5 141.5 27.5 135.5C23.3334 131.667 17.2 123.4 26 121" stroke="black" stroke-linecap="round"/>
<path d="M35.5002 134.5C37.9002 132.5 31.5002 126 28.5 127.5C25.8924 128.803 31.5 136.5 35.5002 134.5Z" stroke="black"/>
<path d="M55.5 80C56.6667 80.3333 59.3 81.5 60.5 83.5" stroke="black" stroke-linecap="round"/>
<path d="M51.5 73C56.6667 73.6667 68.2 77.4 73 87" stroke="black" stroke-linecap="round"/>
<path d="M58 69C60.3333 69 65.6 69.8 68 73" stroke="black" stroke-linecap="round"/>
<path d="M73 77.5L70 74.5" stroke="black" stroke-linecap="round"/>
<path d="M69.5 134.5L107 96" stroke="black" stroke-linecap="round"/>
<path d="M114.5 88L110.5 92.5" stroke="black" stroke-linecap="round"/>
<path d="M133 35.5C133.833 39 134.5 46.8 130.5 50" stroke="black" stroke-linecap="round"/>
<path d="M137 32C137.333 33.3333 138 36.4 138 38" stroke="black" stroke-linecap="round"/>
<path d="M138 40.5C137.833 44.5 136.3 53.6 131.5 58" stroke="black" stroke-linecap="round"/>
<path d="M88.5 32.5001C92.5 31.8334 101.8 32.1001 107 38.5001" stroke="black" stroke-linecap="round"/>
<path d="M108.5 41C109.167 41.8333 110.4 44.6 110 49" stroke="black" stroke-linecap="round"/>
<path d="M117.5 5.5C116.667 6.16667 114.9 7.7 114.5 8.5" stroke="black" stroke-linecap="round"/>
<path d="M121.5 13.5L118.5 18" stroke="black" stroke-linecap="round"/>
<path d="M122.5 15.5L121 17" stroke="black" stroke-linecap="round"/>
<path d="M118.5 13.5L116.5 15.5" stroke="black" stroke-linecap="round"/>
<defs>
<filter id="filter0_d_615_1502" x="0.500977" y="0.500732" width="148.136" height="163.719" filterUnits="userSpaceOnUse" color-interpolation-filters="sRGB">
<feFlood flood-opacity="0" result="BackgroundImageFix"/>
<feColorMatrix in="SourceAlpha" type="matrix" values="0 0 0 0 0 0 0 0 0 0 0 0 0 0 0 0 0 0 127 0" result="hardAlpha"/>
<feOffset dy="4"/>
<feGaussianBlur stdDeviation="2"/>
<feComposite in2="hardAlpha" operator="out"/>
<feColorMatrix type="matrix" values="0 0 0 0 0 0 0 0 0 0 0 0 0 0 0 0 0 0 0.25 0"/>
<feBlend mode="normal" in2="BackgroundImageFix" result="effect1_dropShadow_615_1502"/>
<feBlend mode="normal" in="SourceGraphic" in2="effect1_dropShadow_615_1502" result="shape"/>
</filter>
</defs>
</svg>
