<svg width="251" height="291" viewBox="0 0 251 291" fill="none" xmlns="http://www.w3.org/2000/svg">
<g filter="url(#filter0_d_615_1462)">
<path d="M63.5 62L116 4L237 109.5L188.5 166.5L244 216L191.5 278L74 174.5L124 117.5L63.5 62Z" fill="#FFE584"/>
<path d="M58 10.5L7.5 68L63.5 62.5L116.5 4L58 10.5Z" fill="#61A3FF"/>
<path d="M123.5 117.5L67.5 122L7 67.5L63 63.5L123.5 117.5Z" fill="#1D1E5F"/>
<path d="M123 118L74 173.5H22L67 122L123 118Z" fill="#62A3FF"/>
<path d="M192.5 278L142 279.5L20.5 174H74L192.5 278Z" fill="#1D1E5F"/>
<path d="M63.5 62L116 4L237 109.5L188.5 166.5L244 216L191.5 278L74 174.5L124 117.5L63.5 62Z" stroke="white" stroke-width="7" stroke-linejoin="bevel"/>
<path d="M58 10.5L7.5 68L63.5 62.5L116.5 4L58 10.5Z" stroke="white" stroke-width="7" stroke-linejoin="bevel"/>
<path d="M123.5 117.5L67.5 122L7 67.5L63 63.5L123.5 117.5Z" stroke="white" stroke-width="7" stroke-linejoin="bevel"/>
<path d="M123 118L74 173.5H22L67 122L123 118Z" stroke="white" stroke-width="7" stroke-linejoin="bevel"/>
<path d="M192.5 278L142 279.5L20.5 174H74L192.5 278Z" stroke="white" stroke-width="7" stroke-linejoin="bevel"/>
</g>
<path d="M63.5 62L116 4L237 109.5L188.5 166.5L244 216L191.5 278L74 174.5L124 117.5L63.5 62Z" fill="#FFE584" stroke="black" stroke-width="2" stroke-linejoin="bevel"/>
<path d="M58 10.5L7.5 68L63.5 62.5L116.5 4L58 10.5Z" fill="#61A3FF" stroke="black" stroke-width="2" stroke-linejoin="bevel"/>
<path d="M123.5 117.5L67.5 122L7 67.5L63 63.5L123.5 117.5Z" fill="#1D1E5F" stroke="black" stroke-width="2" stroke-linejoin="bevel"/>
<path d="M123 118L74 173.5H22L67 122L123 118Z" fill="#62A3FF" stroke="black" stroke-width="2" stroke-linejoin="bevel"/>
<path d="M192.5 278L142 279.5L20.5 174H74L192.5 278Z" fill="#1D1E5F" stroke="black" stroke-width="2" stroke-linejoin="bevel"/>
<circle cx="120.5" cy="19.5" r="3.5" fill="black"/>
<circle cx="89.5" cy="54.5" r="3.5" fill="black"/>
<circle cx="119.5" cy="47.5" r="3.5" fill="black"/>
<circle cx="150.5" cy="44.5" r="3.5" fill="black"/>
<circle cx="119.5" cy="79.5" r="3.5" fill="black"/>
<circle cx="153.5" cy="76.5" r="3.5" fill="black"/>
<circle cx="181.5" cy="73.5" r="3.5" fill="black"/>
<circle cx="185.5" cy="106.5" r="3.5" fill="black"/>
<circle cx="217.5" cy="103.5" r="3.5" fill="black"/>
<circle cx="152.5" cy="106.5" r="3.5" fill="black"/>
<circle cx="152.5" cy="144.5" r="3.5" fill="black"/>
<circle cx="186.5" cy="137.5" r="3.5" fill="black"/>
<circle cx="116.5" cy="146.5" r="3.5" fill="black"/>
<circle cx="90.5" cy="177.5" r="3.5" fill="black"/>
<circle cx="123.5" cy="180.5" r="3.5" fill="black"/>
<circle cx="156.5" cy="176.5" r="3.5" fill="black"/>
<circle cx="178.5" cy="197.5" r="3.5" fill="black"/>
<circle cx="179.5" cy="227.5" r="3.5" fill="black"/>
<circle cx="213.5" cy="227.5" r="3.5" fill="black"/>
<circle cx="206.5" cy="194.5" r="3.5" fill="black"/>
<circle cx="152.5" cy="227.5" r="3.5" fill="black"/>
<circle cx="185.5" cy="257.5" r="3.5" fill="black"/>
<circle cx="125.5" cy="206.5" r="3.5" fill="black"/>
<defs>
<filter id="filter0_d_615_1462" x="0.657227" y="0.521484" width="250.014" height="290.477" filterUnits="userSpaceOnUse" color-interpolation-filters="sRGB">
<feFlood flood-opacity="0" result="BackgroundImageFix"/>
<feColorMatrix in="SourceAlpha" type="matrix" values="0 0 0 0 0 0 0 0 0 0 0 0 0 0 0 0 0 0 127 0" result="hardAlpha"/>
<feOffset dy="4"/>
<feGaussianBlur stdDeviation="2"/>
<feComposite in2="hardAlpha" operator="out"/>
<feColorMatrix type="matrix" values="0 0 0 0 0 0 0 0 0 0 0 0 0 0 0 0 0 0 0.25 0"/>
<feBlend mode="normal" in2="BackgroundImageFix" result="effect1_dropShadow_615_1462"/>
<feBlend mode="normal" in="SourceGraphic" in2="effect1_dropShadow_615_1462" result="shape"/>
</filter>
</defs>
</svg>
