<svg width="51" height="51" viewBox="0 0 51 51" fill="none" xmlns="http://www.w3.org/2000/svg">
<circle cx="25.6319" cy="25.4737" r="24.1055" fill="#F6EC8D" stroke="black" stroke-width="2"/>
<path d="M22.3158 15.0526L19 3.68408" stroke="black" stroke-linecap="round"/>
<path d="M27.0527 13.6315V2.26294" stroke="black" stroke-linecap="round"/>
<path d="M35.5796 4.63135L31.3164 15.0525" stroke="black" stroke-linecap="round"/>
<path d="M43.632 9.84204L34.1582 16.9474" stroke="black" stroke-linecap="round"/>
<path d="M47.8949 16.4736L36.5264 20.7368" stroke="black" stroke-linecap="round"/>
<path d="M49.7905 25H37.4746" stroke="black" stroke-linecap="round"/>
<path d="M46.4738 33.0528L36.5264 28.7896" stroke="black" stroke-linecap="round"/>
<path d="M41.7373 40.1581L33.6846 32.5791" stroke="black" stroke-linecap="round"/>
<path d="M33.685 44.8949L30.3691 35.4211" stroke="black" stroke-linecap="round"/>
<path d="M25.6318 46.7896V35.8948" stroke="black" stroke-linecap="round"/>
<path d="M16.1582 46.7898L22.3162 34.4739" stroke="black" stroke-linecap="round"/>
<path d="M19.0002 31.6316L9.52637 39.2106" stroke="black" stroke-linecap="round"/>
<path d="M16.6323 28.3159L4.79004 31.6317" stroke="black" stroke-linecap="round"/>
<path d="M16.6323 23.5789H4.31641" stroke="black" stroke-linecap="round"/>
<path d="M17.1057 20.7368L6.68457 14.5789" stroke="black" stroke-linecap="round"/>
<path d="M19.9472 16.4737L11.8945 7.94727" stroke="black" stroke-linecap="round"/>
<circle cx="26.5" cy="24.5" r="11" fill="#1D2057" stroke="black"/>
<circle cx="29.5" cy="33.5" r="6.5" fill="white"/>
</svg>
