<svg width="179" height="343" viewBox="0 0 179 343" fill="none" xmlns="http://www.w3.org/2000/svg">
<g filter="url(#filter0_d_618_1422)">
<path d="M69.5 165L180 4L178.5 101L117.5 177L123.5 224.5C123.5 227.3 125.5 233.333 126.5 236L144 263.5C148.8 267.1 148 271.667 147 273.5L133 296.5L138 270L117.5 244.5C114.3 240.5 112.833 242.833 112.5 244.5L126.5 273.5C129.3 277.9 129 282 128.5 283.5L104.5 331.5L117.5 278L97.5 244.5C94.7 240.5 93.6667 242.833 93.5 244.5L101 283.5L71 329L88.5 280L79.5 244.5C78.3 240.1 76 240.333 75 241L66.5 278L30 313.5L26.5 315.5L56 273.5L61 213C61.4 205.4 56.8333 203.5 54.5 203.5C42.5 203.5 33.1667 207.167 30 209L7.5 242.5C11.3333 229.167 19.5 201.4 21.5 197C23.5 192.6 54.3333 173.833 69.5 165Z" fill="#9E5AFF"/>
<path d="M69.5 165L180 4L178.5 101L117.5 177L123.5 224.5C123.5 227.3 125.5 233.333 126.5 236L144 263.5C148.8 267.1 148 271.667 147 273.5L133 296.5L138 270L117.5 244.5C114.3 240.5 112.833 242.833 112.5 244.5L126.5 273.5C129.3 277.9 129 282 128.5 283.5L104.5 331.5L117.5 278L97.5 244.5C94.7 240.5 93.6667 242.833 93.5 244.5L101 283.5L71 329L88.5 280L79.5 244.5C78.3 240.1 76 240.333 75 241L66.5 278L30 313.5L26.5 315.5L56 273.5L61 213C61.4 205.4 56.8333 203.5 54.5 203.5C42.5 203.5 33.1667 207.167 30 209L7.5 242.5C11.3333 229.167 19.5 201.4 21.5 197C23.5 192.6 54.3333 173.833 69.5 165Z" stroke="white" stroke-width="6" stroke-linecap="round" stroke-linejoin="round"/>
</g>
<path d="M69.5 165L180 4L178.5 101L117.5 177L123.5 224.5C123.5 227.3 125.5 233.333 126.5 236L144 263.5C148.8 267.1 148 271.667 147 273.5L133 296.5L138 270L117.5 244.5C114.3 240.5 112.833 242.833 112.5 244.5L126.5 273.5C129.3 277.9 129 282 128.5 283.5L104.5 331.5L117.5 278L97.5 244.5C94.7 240.5 93.6667 242.833 93.5 244.5L101 283.5L71 329L88.5 280L79.5 244.5C78.3 240.1 76 240.333 75 241L66.5 278L30 313.5L26.5 315.5L56 273.5L61 213C61.4 205.4 56.8333 203.5 54.5 203.5C42.5 203.5 33.1667 207.167 30 209L7.5 242.5C11.3333 229.167 19.5 201.4 21.5 197C23.5 192.6 54.3333 173.833 69.5 165Z" fill="#9E5AFF" stroke="black" stroke-width="2" stroke-linecap="round"/>
<path d="M176.5 87.5L145 127" stroke="black" stroke-linecap="round"/>
<path d="M140.5 130.5L131 143.5" stroke="black" stroke-linecap="round"/>
<path d="M34 193C31.6667 193.667 26.4 196.3 24 201.5" stroke="black" stroke-linecap="round"/>
<defs>
<filter id="filter0_d_618_1422" x="0.5" y="0.999756" width="186.5" height="341.501" filterUnits="userSpaceOnUse" color-interpolation-filters="sRGB">
<feFlood flood-opacity="0" result="BackgroundImageFix"/>
<feColorMatrix in="SourceAlpha" type="matrix" values="0 0 0 0 0 0 0 0 0 0 0 0 0 0 0 0 0 0 127 0" result="hardAlpha"/>
<feOffset dy="4"/>
<feGaussianBlur stdDeviation="2"/>
<feComposite in2="hardAlpha" operator="out"/>
<feColorMatrix type="matrix" values="0 0 0 0 0 0 0 0 0 0 0 0 0 0 0 0 0 0 0.25 0"/>
<feBlend mode="normal" in2="BackgroundImageFix" result="effect1_dropShadow_618_1422"/>
<feBlend mode="normal" in="SourceGraphic" in2="effect1_dropShadow_618_1422" result="shape"/>
</filter>
</defs>
</svg>
