<svg width="45" height="45" viewBox="0 0 45 45" fill="none" xmlns="http://www.w3.org/2000/svg">
<rect width="45" height="45" rx="22.5" fill="#CED0DB"/>
<g clip-path="url(#clip0_39_2542)">
<path d="M16.9444 30.8334C15.8333 30.8334 14.7222 29.8611 14.1667 29.4445C11.3889 27.5 10.5556 26.8056 10 26.3889V32.2222C10 32.9892 10.622 33.6111 11.3889 33.6111H22.5C23.2669 33.6111 23.8889 32.9892 23.8889 32.2222V26.3889C23.3333 26.8056 22.5 27.5 19.7222 29.4445C19.1667 29.8611 18.0556 30.8334 16.9444 30.8334ZM22.5 22.5H11.3889C10.622 22.5 10 23.122 10 23.8889V24.5834C11.1111 25.4167 10.9722 25.4167 15 28.3334C15.4167 28.6111 16.25 29.4445 16.9444 29.4445C17.6389 29.4445 18.4722 28.6111 18.8889 28.4722C22.9167 25.5556 22.7778 25.5556 23.8889 24.7222V23.8889C23.8889 23.122 23.2669 22.5 22.5 22.5ZM33.6111 18.3334H19.7222C18.9553 18.3334 18.3333 18.9553 18.3333 19.7222V21.1111H22.5C23.9414 21.1111 25.1298 22.2144 25.2652 23.6207L25.2778 23.6111V29.4445H33.6111C34.378 29.4445 35 28.8225 35 28.0556V19.7222C35 18.9553 34.378 18.3334 33.6111 18.3334ZM32.2222 23.8889H29.4444V21.1111H32.2222V23.8889ZM16.9444 19.7222C16.9444 18.1906 18.1905 16.9445 19.7222 16.9445H29.4444V12.7778C29.4444 12.0109 28.8225 11.3889 28.0556 11.3889H14.1667C13.3997 11.3889 12.7778 12.0109 12.7778 12.7778V21.1111H16.9444V19.7222Z" fill="black"/>
</g>
<defs>
<clipPath id="clip0_39_2542">
<rect width="25" height="25" fill="white" transform="translate(10 10)"/>
</clipPath>
</defs>
</svg>
