<svg width="44" height="45" viewBox="0 0 44 45" fill="none" xmlns="http://www.w3.org/2000/svg">
<rect y="0.5" width="44" height="44" rx="22" fill="#CED0DB"/>
<path d="M27 12.5H17C14.2386 12.5 12 14.7386 12 17.5V27.5C12 30.2614 14.2386 32.5 17 32.5H27C29.7614 32.5 32 30.2614 32 27.5V17.5C32 14.7386 29.7614 12.5 27 12.5Z" stroke="black" stroke-width="2" stroke-linecap="round" stroke-linejoin="round"/>
<path d="M26 21.87C26.1234 22.7022 25.9812 23.5522 25.5937 24.299C25.2062 25.0458 24.5931 25.6514 23.8416 26.0297C23.0901 26.4079 22.2384 26.5396 21.4077 26.4059C20.5771 26.2723 19.8097 25.8801 19.2148 25.2852C18.6199 24.6902 18.2277 23.9229 18.094 23.0922C17.9604 22.2615 18.092 21.4099 18.4703 20.6584C18.8485 19.9069 19.4541 19.2937 20.2009 18.9062C20.9477 18.5187 21.7977 18.3766 22.63 18.5C23.4789 18.6259 24.2648 19.0215 24.8716 19.6283C25.4785 20.2351 25.8741 21.0211 26 21.87Z" stroke="black" stroke-width="2" stroke-linecap="round" stroke-linejoin="round"/>
<path d="M27.5 17H27.51" stroke="black" stroke-width="2" stroke-linecap="round" stroke-linejoin="round"/>
</svg>
