<svg width="45" height="45" viewBox="0 0 45 45" fill="none" xmlns="http://www.w3.org/2000/svg">
<rect width="45" height="45" rx="22.5" fill="#CED0DB"/>
<path d="M16.459 31.875H11.9238V17.2705H16.459V31.875ZM14.189 15.2783C12.7388 15.2783 11.5625 14.0771 11.5625 12.627C11.5625 11.9304 11.8392 11.2623 12.3318 10.7698C12.8243 10.2772 13.4924 10.0005 14.189 10.0005C14.8855 10.0005 15.5536 10.2772 16.0462 10.7698C16.5387 11.2623 16.8154 11.9304 16.8154 12.627C16.8154 14.0771 15.6387 15.2783 14.189 15.2783ZM33.4326 31.875H28.9072V24.7656C28.9072 23.0713 28.873 20.8984 26.5493 20.8984C24.1914 20.8984 23.8301 22.7393 23.8301 24.6436V31.875H19.2998V17.2705H23.6494V19.2627H23.7129C24.3184 18.1152 25.7974 16.9043 28.0039 16.9043C32.5938 16.9043 33.4375 19.9268 33.4375 23.8525V31.875H33.4326Z" fill="black"/>
</svg>
