<svg width="44" height="45" viewBox="0 0 44 45" fill="none" xmlns="http://www.w3.org/2000/svg">
<rect y="0.5" width="44" height="44" rx="22" fill="#CED0DB"/>
<path d="M31 22C31.0034 23.3199 30.6951 24.6219 30.1 25.8C29.3944 27.2118 28.3098 28.3992 26.9674 29.2293C25.6251 30.0594 24.0782 30.4994 22.5 30.5C21.1801 30.5035 19.8781 30.1951 18.7 29.6L13 31.5L14.9 25.8C14.3049 24.6219 13.9966 23.3199 14 22C14.0006 20.4218 14.4406 18.8749 15.2707 17.5326C16.1008 16.1903 17.2883 15.1056 18.7 14.4C19.8781 13.805 21.1801 13.4966 22.5 13.5H23C25.0843 13.615 27.053 14.4948 28.5291 15.9709C30.0052 17.447 30.885 19.4157 31 21.5V22Z" stroke="black" stroke-width="2" stroke-linecap="round" stroke-linejoin="round"/>
</svg>
