<svg width="132" height="129" viewBox="0 0 132 129" fill="none" xmlns="http://www.w3.org/2000/svg">
<rect width="132" height="129" rx="64.5" fill="#762CE6"/>
<path d="M115.923 77.7271C115.29 68.702 113.115 61.8599 109.298 56.8193C104.87 51.1004 98.7535 47.0472 91.888 45.2828C89.591 44.7144 87.2393 44.4167 84.8778 44.3954C82.4288 44.4247 79.993 44.7736 77.628 45.4336C77.5162 45.6531 77.4501 45.8945 77.4339 46.1421C77.4177 46.3897 77.4517 46.6381 77.5338 46.8713C79.9887 46.1584 82.5254 45.7942 85.0747 45.7886C87.2814 45.7951 89.4806 46.057 91.6312 46.5696C97.538 48.1149 102.888 51.3969 107.038 56.0206C110.616 60.0496 112.919 65.4362 114.074 72.4824C114.611 75.3376 114.852 78.2442 114.793 81.1526C114.489 84.8059 113.54 88.3703 111.994 91.6686C109.547 97.4774 105.136 102.158 99.5915 104.829C95.6391 106.729 91.3313 107.701 86.9749 107.678C79.9911 107.657 73.1961 105.325 67.5792 101.022C63.3418 97.7441 59.8961 93.4912 57.5133 88.5981C56.6925 86.92 56.0469 85.1558 55.5874 83.3356C55.1205 83.3293 54.6581 83.4324 54.235 83.6374C55.872 89.3066 58.8667 94.4538 62.94 98.5994C69.3005 105.196 77.9099 108.932 86.9064 109C89.6446 108.998 92.3713 108.634 95.0208 107.917C101.316 106.144 106.828 102.174 110.63 96.6783C114.431 91.1821 116.288 84.4953 115.889 77.7448" fill="white"/>
<path d="M103.854 61.9398C101.561 58.88 98.6218 56.4059 95.2624 54.7076C91.9031 53.0092 88.213 52.1317 84.4756 52.1426C82.4794 52.1394 80.4912 52.4048 78.561 52.9324C78.3641 52.9857 78.1672 53.0655 77.9704 53.1277C78.0777 53.3414 78.1337 53.5789 78.1337 53.8199C78.1337 54.0608 78.0777 54.2983 77.9704 54.512C80.0748 53.8223 82.2684 53.4692 84.4756 53.4649C90.2669 53.4498 95.8576 55.6634 100.165 59.6769C106.944 66.1285 110 77.7892 107.115 86.202C105.494 90.7369 102.565 94.6441 98.727 97.3925C95.4996 99.8433 91.6003 101.159 87.5998 101.146C86.7415 101.146 85.8841 101.093 85.0319 100.987C79.6309 100.33 74.0502 99.1141 69.8475 94.7746C66.043 90.8341 63.3496 85.8905 62.0584 80.4781C61.7246 80.8686 61.4849 81.6584 61.1425 82.0223C62.3506 86.1726 64.3308 90.0376 66.9715 93.3991C70.2498 97.7025 74.9425 100.603 80.153 101.546C82.6251 102.089 85.1416 102.386 87.6682 102.433C90.4129 102.459 93.1289 101.853 95.62 100.658C99.9913 98.5996 103.695 95.2743 106.285 91.0829C111.241 82.7943 110.231 70.8052 103.854 61.9398" fill="white"/>
<path d="M97.0151 94.5882C97.1342 94.5884 97.2506 94.5513 97.349 94.4817C99.4229 93.1142 101.199 91.3132 102.564 89.1939C103.929 87.0745 104.852 84.6834 105.275 82.1731C105.295 82.0767 105.293 81.9768 105.269 81.8814C105.245 81.7859 105.2 81.6975 105.138 81.6229C105.072 81.5406 104.99 81.4742 104.897 81.4282C104.804 81.3822 104.702 81.3578 104.599 81.3567C104.465 81.3513 104.334 81.3987 104.232 81.4892C104.131 81.5797 104.066 81.7068 104.051 81.8448C103.67 84.1932 102.819 86.4329 101.552 88.4197C100.286 90.4066 98.6326 92.0967 96.6984 93.3813C96.5795 93.4563 96.4886 93.5707 96.4404 93.7061C96.3922 93.8414 96.3897 93.9897 96.4331 94.1268C96.4672 94.2627 96.5418 94.3839 96.6463 94.4732C96.7509 94.5624 96.88 94.6151 97.0151 94.6237" fill="white"/>
<path d="M105.138 77.7715C105.238 77.6468 105.292 77.4898 105.292 77.3278C105.296 77.2413 105.282 77.155 105.252 77.0742C105.222 76.9935 105.176 76.92 105.118 76.8584C105.059 76.7968 104.989 76.7483 104.911 76.7161C104.834 76.6839 104.751 76.6686 104.667 76.6711C104.582 76.6679 104.497 76.6845 104.418 76.7198C104.34 76.7551 104.27 76.8082 104.214 76.8752C104.109 77.0009 104.051 77.1616 104.051 77.3278C104.048 77.4135 104.061 77.499 104.09 77.5792C104.12 77.6593 104.165 77.7324 104.223 77.7938C104.28 77.8553 104.35 77.904 104.426 77.9367C104.502 77.9695 104.585 77.9857 104.667 77.9845C104.756 77.988 104.845 77.9707 104.926 77.9338C105.008 77.8969 105.08 77.8414 105.138 77.7715" fill="white"/>
<path d="M84.6553 82.9985L94.7297 77.3279L89.6968 86.3708L84.6553 95.4136L79.6223 86.3708L74.5808 77.3279L84.6553 82.9985Z" fill="white"/>
<path d="M84.6553 72.6244L94.7298 77.3277L89.6968 68.276L84.6553 59.2331L79.6224 68.276L74.5808 77.3277L84.6553 72.6244Z" fill="white"/>
<path d="M74.5808 77.3279L84.6553 72.6245L94.7297 77.3279L84.6553 82.9985L74.5808 77.3279Z" fill="white"/>
<path d="M78.6125 53.2696C77.962 44.2445 75.805 37.4024 72.0131 32.3619C67.5734 26.6694 61.4589 22.6396 54.6032 20.8874C52.3033 20.3186 49.9488 20.0209 47.5845 20C42.9162 20.0054 38.316 21.1613 34.1633 23.3722C29.8835 25.6352 22.18 30.5249 19.013 37.8905C16.0857 44.7148 15.2298 52.4266 16.7277 58.5232C18.3085 64.4503 21.3772 69.8367 25.6209 74.133C31.9906 80.7439 40.6176 84.4843 49.6302 84.5425V84.5425C52.3661 84.5415 55.0906 84.1747 57.736 83.451C64.0325 81.6792 69.5471 77.7105 73.3501 72.2142C77.153 66.7179 79.0116 60.0301 78.6125 53.2785V53.2696ZM77.4484 56.704C77.1428 60.3543 76.1941 63.9156 74.6494 67.2111C72.2038 73.0024 67.8068 77.6716 62.281 80.345C58.3282 82.2434 54.0207 83.216 49.6644 83.1936C42.6804 83.1737 35.8851 80.8419 30.2687 76.5379C26.0289 73.2603 22.5803 69.0075 20.1942 64.114C17.2241 58.044 16.6934 51.8409 18.4824 44.0049C19.5608 39.2572 21.0502 36.089 23.3441 33.4001C25.7801 30.6684 28.5649 28.2947 31.6211 26.3451C36.4133 23.108 42.002 21.3676 47.7214 21.3311C49.9254 21.3372 52.1217 21.5991 54.2694 22.1121C60.1781 23.6501 65.5335 26.9224 69.6935 31.5365C73.2714 35.5655 75.5653 40.9521 76.7294 47.9983C77.2663 50.8535 77.5074 53.7601 77.4484 56.6685" fill="white"/>
<path d="M47.1906 27.6851C45.1944 27.6818 43.2063 27.9473 41.276 28.4749C30.8421 31.3413 22.5908 43.1707 23.2755 54.3168C23.8233 59.0467 26.1857 64.3713 29.755 68.977C33.0381 73.2792 37.733 76.1788 42.9451 77.1236C45.4137 77.6711 47.9277 77.9683 50.4518 78.011C53.196 78.0519 55.9148 77.4609 58.4121 76.2806C62.7542 74.1808 66.4212 70.8288 68.9744 66.6254C73.9218 58.3368 72.9203 46.3477 66.5007 37.4823C64.2076 34.4338 61.2724 31.9693 57.9196 30.2774C54.5668 28.5855 50.8852 27.7109 47.1564 27.7206L47.1906 27.6851ZM69.8475 61.78C68.2205 66.3115 65.2929 70.217 61.4592 72.9705C58.2312 75.4201 54.3323 76.7354 50.3319 76.7243C49.4737 76.7241 48.6162 76.6708 47.7641 76.5645C42.3631 75.9078 36.7823 74.6921 32.5796 70.3526C28.377 66.013 25.1672 59.6147 24.5594 54.299C24.0202 45.478 29.8064 35.3613 37.7239 31.2703C40.677 29.7661 43.9261 28.9916 47.2163 29.0074C53.0106 28.9901 58.6047 31.2038 62.9143 35.2193C69.6934 41.6798 72.7406 53.3317 69.8646 61.7445" fill="white"/>
<path d="M36.6796 36.3552C36.5607 36.3561 36.4446 36.3931 36.3458 36.4617C34.2718 37.8292 32.4957 39.6302 31.131 41.7496C29.7663 43.8689 28.8428 46.2601 28.4198 48.7703C28.4001 48.8668 28.4022 48.9666 28.426 49.0621C28.4497 49.1575 28.4945 49.246 28.5567 49.3205C28.625 49.4022 28.709 49.4681 28.8034 49.5139C28.8977 49.5598 29.0003 49.5846 29.1045 49.5868C29.2369 49.5898 29.3657 49.5415 29.4655 49.4512C29.5652 49.3609 29.6288 49.2351 29.6438 49.0987C30.0251 46.7503 30.8762 44.5106 32.1425 42.5237C33.4088 40.5368 35.0622 38.8467 36.9963 37.5621C37.1152 37.4872 37.2062 37.3727 37.2544 37.2374C37.3025 37.102 37.3051 36.9538 37.2617 36.8167C37.2276 36.6808 37.153 36.5595 37.0484 36.4703C36.9439 36.381 36.8148 36.3283 36.6796 36.3197" fill="white"/>
<path d="M39.1704 36.0713C39.2722 35.9443 39.3268 35.7838 39.3245 35.6187C39.3293 35.5327 39.3167 35.4466 39.2877 35.3659C39.2586 35.2851 39.2137 35.2115 39.1558 35.1498C39.0978 35.088 39.0281 35.0394 38.951 35.0071C38.874 34.9748 38.7913 34.9594 38.7082 34.962C38.6206 34.9586 38.5334 34.9759 38.4532 35.0129C38.3731 35.0498 38.3022 35.1053 38.246 35.175C38.1427 35.2976 38.0877 35.456 38.0919 35.6187C38.0884 35.7045 38.1018 35.79 38.1313 35.8701C38.1608 35.9503 38.2058 36.0233 38.2635 36.0848C38.3212 36.1463 38.3904 36.1949 38.4669 36.2277C38.5434 36.2605 38.6255 36.2767 38.7082 36.2754C38.795 36.2787 38.8814 36.2622 38.9613 36.2269C39.0412 36.1916 39.1126 36.1385 39.1704 36.0713" fill="white"/>
<path d="M57.8471 54.9735C56.6018 53.6371 54.97 52.7585 53.1993 52.471C55.9155 51.2877 57.2708 49.3413 57.2651 46.6317C57.2884 45.3168 56.9531 44.0217 56.2979 42.8956C55.6011 41.8044 54.6181 40.9424 53.4647 40.4108C51.8346 39.7344 50.0826 39.4317 48.329 39.5234H47.1478V36.2754H45.5386V39.4435H44.443V36.2754H42.8339V39.4435H41.3188V67.1135H42.8339V70.0509H44.443V67.1135H45.5386V70.0509H47.1478V67.1135H50.3491C52.1019 67.1774 53.8452 66.819 55.4419 66.0663C56.6885 65.4654 57.7559 64.5273 58.5319 63.3508C59.2354 62.2266 59.599 60.9102 59.5761 59.5704C59.6109 57.8643 58.9958 56.2127 57.8642 54.9735H57.8471ZM45.1021 42.9666H48.3889C51.6472 42.9666 53.2764 44.2948 53.2764 46.9512C53.2947 47.5387 53.1893 48.1232 52.9675 48.6642C52.7458 49.2052 52.4131 49.6896 51.9925 50.0838C51.1365 50.8825 49.6814 51.2907 47.6443 51.2907H45.1021V42.9666ZM54.9455 61.505C54.5134 62.2072 53.8869 62.7577 53.148 63.0846C51.7616 63.5149 50.3125 63.6862 48.8683 63.5904H45.1021V54.8138H48.68C50.0845 54.7448 51.4904 54.9187 52.8399 55.3285C53.6554 55.624 54.3656 56.1685 54.877 56.8903C55.3417 57.5663 55.5902 58.3764 55.5874 59.2065C55.5901 60.0257 55.3544 60.8267 54.9112 61.505" fill="white"/>
</svg>
