<svg width="125" height="119" viewBox="0 0 125 119" fill="none" xmlns="http://www.w3.org/2000/svg">
<rect width="125" height="119" rx="59.5" fill="#D500F9"/>
<path d="M78 26.875H19.875V74H78V26.875Z" stroke="white" stroke-width="2" stroke-linecap="round" stroke-linejoin="round"/>
<path d="M78 45H93.5L105.125 55.875V74H78V45Z" stroke="white" stroke-width="2" stroke-linecap="round" stroke-linejoin="round"/>
<path d="M37.3125 92.125C42.6628 92.125 47 88.0676 47 83.0625C47 78.0574 42.6628 74 37.3125 74C31.9622 74 27.625 78.0574 27.625 83.0625C27.625 88.0676 31.9622 92.125 37.3125 92.125Z" stroke="white" stroke-width="2" stroke-linecap="round" stroke-linejoin="round"/>
<path d="M87.6875 92.125C93.0378 92.125 97.375 88.0676 97.375 83.0625C97.375 78.0574 93.0378 74 87.6875 74C82.3372 74 78 78.0574 78 83.0625C78 88.0676 82.3372 92.125 87.6875 92.125Z" stroke="white" stroke-width="2" stroke-linecap="round" stroke-linejoin="round"/>
</svg>
