<svg width="126" height="119" viewBox="0 0 126 119" fill="none" xmlns="http://www.w3.org/2000/svg">
<rect width="125.004" height="119" rx="59.5" fill="#762CE6"/>
<path d="M108.821 52.6864C109.086 48.8679 109.062 45.0352 108.75 41.2202C108.498 38.989 108.093 36.4877 106.951 34.9268C106.164 33.9836 105.188 33.2126 104.085 32.6631C102.981 32.1136 101.774 31.7976 100.54 31.7351C98.8609 31.575 97.0509 31.505 94.8768 31.505C93.2286 31.505 91.5601 31.505 89.9118 31.585C88.2636 31.6651 86.6254 31.6751 84.9974 31.6751H83.3188C78.6066 31.555 73.7124 31.505 68.3429 31.505C62.5993 31.505 56.4512 31.565 48.4223 31.6851C45.9954 31.6851 43.5585 31.6851 41.1316 31.7351C36.9857 31.7351 32.7083 31.7852 28.5017 31.9252C23.8906 32.0853 20.675 33.406 18.6728 35.9474C16.2763 38.989 16.2864 43.7015 16.2864 47.8538C16.2864 48.8543 16.2864 49.8548 16.2864 50.7453C16.1651 53.817 16.2055 56.9286 16.2864 59.9502C16.3673 62.9719 16.3066 66.3437 16.1651 69.5254L16.1044 71.0062C15.8516 76.8193 15.4774 85.594 22.7176 86.8346C24.3894 87.0983 26.081 87.2189 27.7736 87.1948C29.0073 87.1948 30.2511 87.1948 31.4847 87.1148C32.7184 87.0348 33.9318 87.0248 35.1352 87.0248H35.9947C38.4485 87.0648 40.9024 87.0848 43.3562 87.0848C46.3898 87.0848 49.4841 87.0848 52.5581 87.0348C56.1782 87.0348 59.8084 86.9247 63.4386 86.8547C68.2115 86.7546 73.136 86.6546 77.9696 86.6546C81.5998 86.6546 84.8558 86.7146 87.8995 86.8246C88.9107 86.8246 90.0938 86.9747 91.3679 87.1048C93.269 87.2849 95.4127 87.495 97.5262 87.495C101.439 87.495 106.819 86.8747 108.245 81.4918C108.786 78.7684 108.963 75.9864 108.771 73.2174C108.771 72.4069 108.771 71.6165 108.771 70.8861C108.771 68.9651 108.771 67.0541 108.771 65.153C108.771 61.411 108.69 57.539 108.841 53.7169L108.821 52.6864ZM106.799 74.1378C106.799 77.2095 106.9 81.0315 105.049 83.1427C103.553 84.8536 101.298 85.644 97.9711 85.644C96.4497 85.6217 94.9307 85.5182 93.4207 85.3338C92.5308 85.2438 91.6713 85.1638 90.8725 85.1137C87.8389 84.9336 84.6233 84.8536 80.902 84.8536C77.5044 84.8536 74.0967 84.9236 70.699 84.9937C68.2216 84.9937 65.7442 85.0937 63.2667 85.1137C58.0489 85.1604 52.8345 85.1838 47.6235 85.1838C43.0326 85.1838 38.4519 85.1838 33.7599 85.1838C32.8903 85.1838 31.869 85.2538 30.787 85.3238C29.5028 85.4139 28.1882 85.5039 26.8534 85.5039C24.3659 85.5039 20.8874 85.2238 19.3301 82.7925C17.5706 79.9209 17.8133 74.8782 18.0257 71.1963C18.0257 70.616 18.0257 70.0657 18.0257 69.5254C18.1976 65.7033 18.1875 61.8313 18.1773 58.0792V56.0782C20.0514 56.0782 21.9222 56.0782 23.7895 56.0782C29.9882 56.0782 36.2879 56.1682 42.3855 56.2483C48.483 56.3283 54.7828 56.4184 60.9814 56.4184H62.7106C67.1801 56.4184 71.6428 56.385 76.0988 56.3183C81.3874 56.2683 86.676 56.2283 91.9646 56.2283C97.5464 56.2283 102.441 56.2783 106.951 56.3983C106.951 60.7607 106.951 66.4837 106.799 72.2668C106.799 72.8271 106.799 73.4575 106.799 74.1178V74.1378ZM21.6255 35.8073C23.6479 34.2965 25.7411 33.9163 28.5118 33.8062C31.6769 33.6662 34.9127 33.6662 38.0373 33.6662C39.9788 33.6662 41.9203 33.6662 43.8618 33.6662C55.1063 33.446 65.552 33.356 75.664 33.356C83.3188 33.356 90.832 33.416 98.0722 33.5161C101.409 33.5661 104.989 34.1564 106.222 38.1786C106.692 39.8072 106.95 41.4882 106.991 43.1813C97.0913 43.5915 86.3928 43.7816 73.3686 43.7816C65.2183 43.7816 56.9366 43.7015 48.938 43.6315C40.9394 43.5615 32.6173 43.5114 24.467 43.5114H18.5616C18.7942 40.4298 18.9964 37.7684 21.5952 35.7873L21.6255 35.8073ZM25.2153 45.3824H29.6342C25.913 48.5441 21.9693 51.5658 18.4504 54.2472L18.5414 54.3873L18.2785 54.2372H18.2178C18.2178 53.1066 18.2178 51.986 18.2178 50.9654C20.4627 48.9644 22.8086 47.1434 25.2962 45.3824H25.2153ZM93.7948 54.3873H88.2636C91.6915 51.7859 95.6049 48.7643 99.2654 45.5625C99.3407 45.4958 99.4055 45.4182 99.4575 45.3324L105.262 45.1423C101.49 48.364 97.5767 51.3656 93.8656 54.1471C93.7645 54.2272 93.6735 54.3172 93.7443 54.3572L93.7948 54.3873ZM79.7897 54.4173C83.248 51.8059 87.1917 48.7643 90.832 45.5125H91.914L96.5453 45.4225C92.8342 48.5742 88.9006 51.5858 85.4828 54.1671C85.3989 54.2302 85.324 54.3043 85.2603 54.3873L79.7897 54.4173ZM71.2956 54.4873C74.7641 51.8459 78.7178 48.8043 82.2975 45.6226L87.9299 45.5525C84.2693 48.6642 80.4066 51.6158 77.0595 54.1471C76.9522 54.2216 76.8653 54.3213 76.8067 54.4373L71.2956 54.4873ZM40.7069 45.5125H46.046C42.3753 48.6342 38.4822 51.6058 35.1048 54.1671C35.0239 54.2172 34.9734 54.2872 35.0442 54.3072L29.8163 54.2472C33.861 51.1455 37.3295 48.4541 40.7069 45.4725V45.5125ZM54.2974 45.5825C50.647 48.6842 46.7842 51.6358 43.427 54.1671C43.3409 54.2316 43.2658 54.3093 43.2045 54.3973L37.9564 54.3372C41.3338 51.7759 45.1966 48.7943 48.8976 45.5325L54.2974 45.5825ZM62.6297 45.6426C58.9995 48.7242 55.167 51.6458 51.8402 54.1671C51.7196 54.2565 51.6225 54.3731 51.557 54.5073L46.1673 54.4373C49.5953 51.8259 53.5289 48.8043 57.1793 45.6026L62.6297 45.6426ZM71.0024 45.6426C67.3722 48.7142 63.5499 51.6458 60.2432 54.1371C60.1133 54.2361 60.0122 54.3672 59.95 54.5173C58.1163 54.5173 56.276 54.5173 54.4288 54.5173C57.877 51.9059 61.8207 48.8643 65.4914 45.6526H70.9721L71.0024 45.6426ZM73.8135 45.6526H78.0909H79.4055C75.7651 48.7342 71.9428 51.6558 68.6261 54.1671C68.4997 54.2571 68.3987 54.3777 68.3328 54.5173H62.8218C66.2902 51.8859 70.244 48.8343 73.8439 45.6426L73.8135 45.6526ZM32.3847 45.5225L32.506 45.3824C34.2959 45.3824 36.0857 45.3824 37.8654 45.3824C34.1543 48.5341 30.241 51.5257 26.8332 54.1772H21.5649C25.6602 51.0655 29.0882 48.374 32.3847 45.4925V45.5225ZM18.3088 48.4441C18.3088 47.4435 18.3897 46.443 18.4504 45.4425H22.1413C20.8166 46.443 19.5324 47.4435 18.3088 48.4441V48.4441ZM107.011 50.9054L102.734 54.1671C102.626 54.2475 102.536 54.3499 102.471 54.4673H100.752C99.3766 54.4673 98.0115 54.4173 96.6363 54.4073C100.014 51.8459 103.583 49.0744 106.961 46.1529V49.8949L107.011 50.9054ZM107.011 53.3067V54.5173H105.393L107.011 53.3067Z" fill="white"/>
<path d="M28.4515 68.845L39.1297 68.7049C39.8174 68.7049 40.5555 68.7049 41.3139 68.7649C42.0723 68.825 42.9521 68.835 43.7711 68.835C44.9488 68.8662 46.1255 68.7417 47.2699 68.4648C47.4287 68.4221 47.5732 68.3384 47.6887 68.2224C47.8041 68.1064 47.8864 67.9622 47.9272 67.8044C48.1521 66.5044 48.1692 65.1775 47.9777 63.8723C47.9777 63.352 47.8867 62.8718 47.8766 62.3815C47.8622 62.1367 47.7574 61.9057 47.5822 61.7324C47.4069 61.559 47.1735 61.4553 46.9261 61.441L25.8426 61.6911C25.6688 61.6889 25.4988 61.7415 25.3572 61.8412C25.2082 61.9113 25.0842 62.0243 25.0012 62.1653C24.9182 62.3063 24.8801 62.4689 24.892 62.6316C24.892 63.5722 24.892 64.3826 24.892 65.073C24.8314 66.5337 24.7909 67.4943 25.3875 68.0746C25.9841 68.6549 26.8133 68.815 28.4818 68.815L28.4515 68.845ZM32.5266 67.004C31.5871 67.1226 30.6421 67.1927 29.6952 67.2141C29.144 67.2477 28.592 67.1623 28.0773 66.964C26.6414 66.2136 26.7122 65.2631 26.7931 63.9624V63.5521L37.9163 63.4221C38.5736 63.4221 39.241 63.4221 39.9387 63.362C40.6364 63.302 41.5162 63.292 42.3049 63.292C42.8611 63.292 43.4172 63.292 44.0239 63.352C44.2693 63.2748 44.5249 63.2343 44.7823 63.232C45.2524 63.2254 45.7101 63.3811 46.0767 63.6722L46.1879 65.9034C45.7126 66.7439 43.9127 67.1641 40.8285 67.1641C39.3219 67.1641 37.795 67.074 36.4905 66.994C35.6006 66.994 34.8422 66.8939 34.2456 66.8939C33.8209 66.8939 33.2344 66.964 32.5367 67.034" fill="white"/>
<path d="M85.9887 62.3815C85.9743 62.1367 85.8695 61.9057 85.6943 61.7324C85.5191 61.559 85.2856 61.4553 85.0382 61.441C79.9013 61.511 74.7644 61.5411 69.6275 61.5711C64.4906 61.6011 59.3538 61.6311 54.2169 61.6911C54.0438 61.6934 53.8751 61.7455 53.7315 61.8412C53.5843 61.9135 53.4617 62.0269 53.379 62.1674C53.2963 62.3079 53.2571 62.4693 53.2663 62.6316C53.2684 63.1866 53.238 63.7411 53.1753 64.2925C52.9933 66.1135 52.8012 68.1846 54.6112 68.845C55.0025 68.9715 55.4132 69.029 55.8247 69.0151C56.3505 69.0151 56.9168 68.955 57.4426 68.905C57.9684 68.855 58.2617 68.835 58.5751 68.825L76.3419 68.6849C77.1407 68.6849 77.9902 68.6849 78.8699 68.7749C79.7496 68.865 80.7608 68.865 81.7013 68.865C82.9408 68.8961 84.1789 68.7615 85.382 68.4648C85.5408 68.4221 85.6853 68.3384 85.8008 68.2224C85.9163 68.1064 85.9986 67.9622 86.0393 67.8044C86.2476 66.4985 86.2476 65.1683 86.0393 63.8623C86.0393 63.342 85.9483 62.8618 85.9382 62.3815H85.9887ZM77.1407 66.8039L59.4852 66.944C59.192 66.944 58.8279 66.944 58.474 67.014C58.1201 67.084 57.5842 67.094 57.1696 67.094C56.8555 67.1073 56.5413 67.0701 56.2393 66.984C55.0056 66.5938 55.0764 65.2931 55.1674 63.9123V63.5621C59.5021 63.5088 63.8468 63.4721 68.2017 63.4521L79.7092 63.372C80.0126 63.372 80.4069 63.372 80.8316 63.292C81.2563 63.212 81.9439 63.1919 82.4698 63.1919C82.836 63.1735 83.2026 63.221 83.5518 63.332C83.6807 63.3872 83.8169 63.4242 83.9562 63.4421C83.9562 63.4421 83.9562 63.4421 83.9562 63.4421C84.0062 63.5333 84.0637 63.6204 84.1281 63.7022C84.3267 64.5811 84.3059 65.4946 84.0675 66.3637C83.7843 66.7739 82.7832 66.974 81.0339 66.974C80.1743 66.974 79.2643 66.974 78.5059 66.8839C77.9497 66.8839 77.4947 66.8239 77.1104 66.8239" fill="white"/>
<path d="M61.1435 72.3068C57.6852 72.3068 54.237 72.3668 50.7787 72.3868L35.5399 72.5269C34.6804 72.5269 33.74 72.4769 32.7692 72.4269C31.7985 72.3768 30.6457 72.3168 29.5941 72.3168C28.273 72.2798 26.953 72.4212 25.6706 72.737C25.5127 72.7816 25.3692 72.8658 25.254 72.9815C25.1389 73.0972 25.0559 73.2405 25.0133 73.3974C24.7883 74.7007 24.7712 76.0309 24.9628 77.3395C24.9628 77.8498 25.0437 78.34 25.0639 78.8203C25.0781 79.0634 25.1814 79.2931 25.3546 79.4663C25.5277 79.6394 25.7587 79.7441 26.0043 79.7608V79.7608C32.203 79.6807 38.4117 79.6607 44.6104 79.6307C50.809 79.6007 57.0582 79.5807 63.2872 79.5106C63.4608 79.5115 63.6304 79.4591 63.7726 79.3606C63.9285 79.2881 64.0574 79.1689 64.141 79.0198C64.2245 78.8707 64.2583 78.6994 64.2378 78.5301C64.2378 77.7197 64.2378 76.9693 64.2984 76.2989C64.3793 74.8682 64.4501 73.7376 63.7827 73.0372C63.4151 72.746 62.9919 72.5312 62.5384 72.4057C62.0849 72.2802 61.6104 72.2465 61.1435 72.3068V72.3068ZM58.2413 74.1578C58.7773 74.1578 59.3233 74.0777 59.8491 74.0777C60.2726 74.0754 60.6955 74.1089 61.1131 74.1778C61.2342 74.1905 61.3562 74.1905 61.4772 74.1778H61.8513C61.9423 74.1778 62.0435 74.1778 62.2558 74.498C62.5427 75.4111 62.5982 76.3801 62.4176 77.3195V77.5796C57.5234 77.6396 52.6393 77.6597 47.7451 77.6797L32.749 77.7697H28.2593H28.0267C27.7436 77.7697 27.2582 77.8197 26.9144 77.8197H26.7223C26.8386 77.0685 26.8826 76.308 26.8537 75.5485V75.2284C26.8583 75.1918 26.8583 75.1548 26.8537 75.1183L26.9751 74.7481C26.9751 74.618 27.0559 74.508 27.1571 74.488C27.4281 74.4731 27.6963 74.4261 27.9559 74.3479C28.1646 74.299 28.3785 74.2755 28.593 74.2778H29.2705C29.4828 74.2778 29.6851 74.2778 29.8974 74.2778L56.8661 74.0977C57.3009 74.0977 57.7762 74.0977 58.2616 74.0377" fill="white"/>
<path d="M101.703 74.7179C101.547 74.7178 101.394 74.7508 101.252 74.8147C101.111 74.8786 100.985 74.9718 100.884 75.0881C100.796 75.1984 100.732 75.3258 100.698 75.462C100.663 75.5982 100.657 75.7401 100.681 75.8785C100.768 76.3477 100.746 76.8302 100.616 77.2896C100.487 77.749 100.253 78.1732 99.9332 78.5299C98.5478 80.1608 95.5749 80.8912 93.2289 80.8912C92.8063 80.8924 92.384 80.8657 91.9649 80.8112H91.8436C91.5754 80.8112 91.3182 80.9166 91.1285 81.1042C90.9389 81.2918 90.8324 81.5463 90.8324 81.8117C90.8197 81.9137 90.8279 82.0173 90.8563 82.1161C90.8847 82.215 90.9329 82.3073 90.9979 82.3875C91.0629 82.4676 91.1435 82.5341 91.2349 82.583C91.3263 82.6319 91.4267 82.6622 91.5301 82.6722C92.0993 82.7541 92.6739 82.7942 93.2491 82.7922C95.8176 82.7922 99.4984 81.9918 101.41 79.7306C101.915 79.1457 102.278 78.4532 102.469 77.707C102.66 76.9608 102.675 76.181 102.512 75.4283C102.489 75.2338 102.393 75.0548 102.243 74.927C102.094 74.7991 101.901 74.7316 101.703 74.7379" fill="white"/>
<path d="M101.551 72.7975C101.683 72.8023 101.814 72.7778 101.934 72.7259C102.055 72.6739 102.163 72.5958 102.249 72.4973C102.396 72.3159 102.475 72.0895 102.471 71.857C102.477 71.735 102.457 71.6132 102.413 71.4992C102.369 71.3851 102.302 71.2812 102.216 71.1939C102.129 71.1067 102.026 71.0379 101.911 70.9919C101.797 70.9459 101.674 70.9236 101.551 70.9265C101.421 70.9217 101.292 70.9463 101.172 70.9983C101.053 71.0503 100.948 71.1284 100.863 71.2266C100.713 71.4067 100.63 71.6332 100.631 71.867C100.625 71.989 100.645 72.1107 100.689 72.2248C100.733 72.3389 100.8 72.4428 100.887 72.53C100.973 72.6173 101.077 72.6861 101.191 72.7321C101.305 72.7781 101.428 72.8003 101.551 72.7975" fill="white"/>
</svg>
