<svg width="115" height="109" viewBox="0 0 115 109" fill="none" xmlns="http://www.w3.org/2000/svg">
<rect width="115" height="108.973" rx="54.4866" fill="#762CE6"/>
<path d="M98.6386 55.5237C98.4765 55.3132 98.2702 55.147 98.0367 55.0387C97.8032 54.9303 97.5491 54.883 97.2953 54.9006C96.867 54.9214 96.4418 54.99 96.0267 55.1053C95.6582 55.2113 95.2801 55.274 94.899 55.2922C94.8108 55.3014 94.7219 55.3014 94.6337 55.2922C92.2291 54.865 91.6652 52.2479 91.1677 49.9512C91.0465 49.1833 90.8776 48.4249 90.6619 47.6813C89.1016 43.7566 86.2038 40.6201 82.5609 38.9131C83.1911 35.7797 83.6886 30.4297 80.2392 28.8452C79.9777 28.7213 79.6958 28.6548 79.4101 28.6494C78.5847 28.7551 77.8208 29.1714 77.2542 29.8244L77.0718 29.9846C75.4241 31.4016 73.8699 32.9393 72.4201 34.5868L71.8148 34.3999C69.7235 33.7018 67.5866 33.1721 65.4219 32.8154C66.7632 31.158 67.6728 29.1497 68.0587 26.9936C68.271 25.7475 68.2195 24.466 67.9081 23.2441C67.5966 22.0221 67.0331 20.8911 66.2594 19.9346C65.3501 18.7438 64.2134 17.7764 62.926 17.0976C61.6386 16.4188 60.2305 16.0445 58.7969 16H58.6227C51.7738 16.365 47.7855 19.6586 46.7158 25.7919C46.5198 27.0543 46.5981 28.3482 46.9448 29.5727C47.2914 30.7972 47.8969 31.9192 48.7141 32.851C41.7408 34.1862 32.338 37.4443 26.683 45.3757H26.5835C25.4475 44.8865 24.4921 44.011 23.8638 42.8832L24.2453 42.7052C25.8539 41.9753 27.678 40.4709 28.1092 38.7617C28.2264 38.3041 28.2401 37.823 28.1492 37.3586C28.0584 36.8941 27.8656 36.4596 27.5868 36.0912C27.3168 35.6653 26.9549 35.3157 26.5318 35.0724C26.1088 34.829 25.6373 34.6991 25.1574 34.6936C24.2376 34.7431 23.3594 35.12 22.6612 35.7647C21.9631 36.4094 21.4847 37.2854 21.3017 38.2543C21.1058 39.3503 21.1627 40.4811 21.4675 41.548H21.2602C20.5363 41.5901 19.8154 41.4192 19.1754 41.0537C18.5354 40.6882 18.0005 40.1419 17.6285 39.4739C17.5622 39.3396 17.4631 39.2272 17.3419 39.1488C17.2207 39.0704 17.0818 39.0289 16.9403 39.0288C16.7742 39.025 16.6101 39.0682 16.4645 39.1542C16.3189 39.2401 16.197 39.3657 16.1111 39.5184C16.0383 39.6537 16 39.8072 16 39.9635C16 40.1197 16.0383 40.2732 16.1111 40.4086C16.6422 41.3504 17.3999 42.1212 18.3046 42.6397C19.2093 43.1582 20.2275 43.4053 21.252 43.355C21.5256 43.355 21.7992 43.355 22.0811 43.3105C22.9088 44.8684 24.166 46.1125 25.6797 46.8712C24.6588 48.5343 23.8369 50.3287 23.2337 52.2123C20.6798 60.1704 23.0264 67.817 25.2983 75.2143C26.8986 80.4307 28.5487 85.8074 28.5072 91.2998C28.5059 91.532 28.5892 91.7556 28.7394 91.9229C28.9089 92.0979 29.1344 92.1967 29.3695 92.1988C29.5148 92.2004 29.658 92.1609 29.7846 92.0843C29.9112 92.0078 30.0168 91.8968 30.0909 91.7627C30.6705 90.8275 31.4005 90.0107 32.2468 89.3503C32.6245 89.0575 32.9845 88.7394 33.3247 88.3978C33.8222 88.6292 34.7426 90.0268 35.4805 91.1573C35.8161 91.6968 36.1816 92.214 36.575 92.7062C36.7281 92.874 36.9368 92.9699 37.1555 92.9733C37.3685 92.9515 37.5679 92.8508 37.7192 92.6883C37.8705 92.5258 37.9644 92.3118 37.9846 92.0831C38.2732 89.9583 38.7622 87.8705 39.444 85.8519C39.7591 84.8193 40.0659 83.7867 40.3312 82.7541C45.2723 84.0025 50.3295 84.6445 55.4055 84.668C59.4234 84.7148 63.4294 84.194 67.3207 83.1191C68.063 85.707 68.6175 88.3528 68.9791 91.0327C68.9705 91.2172 69.0156 91.4001 69.1081 91.5558C69.2006 91.7116 69.336 91.8326 69.4955 91.9021C69.655 91.9715 69.8306 91.986 69.9981 91.9435C70.1656 91.9009 70.3165 91.8035 70.4301 91.6647C71.0936 91.0276 71.7194 90.3468 72.3041 89.6262L72.5114 89.3948C72.7186 89.1811 73.0006 88.8696 73.2244 88.5847L73.6307 88.9942C73.7488 89.0982 73.8596 89.2112 73.9624 89.3325C74.8054 90.3031 75.6937 91.2271 76.624 92.1009C76.7882 92.2522 76.9964 92.3372 77.2128 92.3413C77.4327 92.3413 77.6436 92.2475 77.7991 92.0805C77.9546 91.9136 78.0419 91.6872 78.0419 91.4511V90.6855C78.2161 86.0744 78.4068 81.312 82.1878 78.4101C83.3155 77.5199 84.4514 76.8433 85.5542 76.1668C88.0417 74.6001 90.4298 73.1313 92.1876 70.2294C95.6038 70.2294 96.6568 67.7458 97.2953 65.0575C97.3782 64.7103 97.5275 64.2118 97.7016 63.6243C98.481 60.9538 99.6667 56.9925 98.5308 55.4792L98.6386 55.5237ZM91.0682 68.8318C89.3464 71.6822 86.8847 73.9289 83.9871 75.2944C81.9512 76.1577 80.1636 77.5825 78.8048 79.4248C76.8977 82.2734 76.5577 85.7273 76.4085 89.3325L75.7285 88.558C75.0984 87.837 74.4516 87.0892 73.7468 86.4216C73.5766 86.2613 73.3596 86.17 73.1332 86.1635C72.9145 86.1668 72.7059 86.2628 72.5528 86.4305C72.0802 86.9468 71.649 87.4898 71.2096 88.0239C70.9276 88.3711 70.654 88.7272 70.3804 89.0654C69.9583 86.5914 69.4046 84.1453 68.722 81.7393C68.6676 81.548 68.5579 81.3803 68.4089 81.2603C68.2598 81.1403 68.0791 81.0742 67.8929 81.0717C67.8187 81.0587 67.7431 81.0587 67.669 81.0717C63.6869 82.2685 59.5652 82.8441 55.4304 82.7808C50.2067 82.754 45.0045 82.0607 39.9332 80.7156C39.8616 80.7068 39.7892 80.7068 39.7176 80.7156C39.5293 80.7092 39.3446 80.7718 39.1939 80.8932C39.0432 81.0145 38.9354 81.1874 38.8884 81.3832C38.5899 82.7452 38.1836 84.1072 37.7939 85.4157C37.3545 86.9023 36.8984 88.4334 36.5916 89.9823C36.1439 89.3948 35.7625 88.7895 35.3064 88.202C34.8504 87.6144 34.4772 87.0091 34.0461 86.4216C33.9779 86.3325 33.8916 86.2614 33.7939 86.2135C33.6962 86.1657 33.5896 86.1425 33.4822 86.1457C33.2475 86.1467 33.0209 86.2383 32.8438 86.4038C32.4375 86.7955 32.0146 87.1515 31.5917 87.5165C31.1688 87.8815 30.6382 88.4957 30.1324 88.9942C29.7841 84.3653 28.3497 79.8343 26.9649 75.4458C25.0413 69.3392 23.0513 62.9833 24.0214 56.494C26.4343 40.1949 43.0923 35.6461 50.2647 34.4266C51.8725 35.7724 53.8065 36.5942 55.8367 36.7944C56.1933 36.7944 56.5415 36.839 56.8898 36.839C59.3558 36.879 61.7636 36.033 63.7304 34.4355C66.1623 34.652 68.5616 35.178 70.8779 36.0022C71.392 36.1713 71.9226 36.3316 72.4865 36.4918C72.5584 36.5194 72.634 36.5344 72.7104 36.5363C72.874 36.5325 73.0317 36.4698 73.1581 36.3583L73.2991 36.2425C74.7851 34.3026 76.5056 32.5842 78.4151 31.1329C78.7464 30.8881 79.1331 30.7435 79.5344 30.7146C79.6969 30.7159 79.8567 30.7586 80.0008 30.839C80.145 30.9195 80.2693 31.0355 80.3636 31.1775C81.5327 32.7798 81.0269 37.836 80.7119 39.3047C80.6788 39.3964 80.663 39.4943 80.6656 39.5925C80.6682 39.6908 80.689 39.7876 80.7268 39.8771C80.7646 39.9666 80.8187 40.0472 80.8859 40.114C80.9531 40.1808 81.0321 40.2325 81.1182 40.2661C83.068 41.0835 84.8237 42.3568 86.258 43.9935C87.6922 45.6303 88.7689 47.5894 89.4099 49.7287C89.5676 50.3141 89.6949 50.9084 89.7913 51.509C90.1313 53.2894 90.5127 55.3368 91.715 56.3427C92.5217 56.8999 93.4677 57.1794 94.4264 57.1438H94.7083C94.9414 57.1375 95.1739 57.1167 95.4048 57.0815C95.7284 57.0179 96.0551 56.9734 96.3832 56.948C96.8641 56.948 97.1709 57.0459 97.3119 57.2417C97.2785 57.8269 97.1726 58.4047 96.9968 58.9598C96.9968 59.12 96.9222 59.2446 96.9139 59.298C96.8227 59.7698 96.7398 60.3039 96.6568 60.8647C96.1345 64.2385 95.4877 68.449 92.1627 68.449H91.8559C91.7127 68.4458 91.5717 68.4869 91.4497 68.5674C91.3276 68.6479 91.2298 68.7644 91.1677 68.903L91.0682 68.8318ZM65.9858 28.1064C65.3549 30.1328 64.1453 31.8943 62.5289 33.1408C60.9124 34.3872 58.9712 35.0551 56.981 35.0497C56.2703 35.0495 55.5616 34.9689 54.8666 34.8094C53.6579 34.5704 52.5173 34.0336 51.5346 33.2412C50.5519 32.4488 49.7539 31.4224 49.2033 30.2428C48.7181 29.1068 48.4871 27.8648 48.5289 26.6159C48.5706 25.367 48.884 24.1459 49.4438 23.0502C51.3675 19.0088 54.4852 18.0385 58.5647 17.816H58.7222C59.9598 17.8271 61.1769 18.1561 62.2718 18.7756C63.3667 19.3951 64.3075 20.2869 65.0156 21.3766C65.6679 22.3347 66.0939 23.4484 66.2571 24.6221C66.4203 25.7958 66.3158 26.9945 65.9526 28.1153L65.9858 28.1064ZM23.6317 37.3642C23.9933 36.9697 24.4844 36.7429 24.9998 36.7321C25.2697 36.7232 25.5364 36.7972 25.7685 36.9454C26.0006 37.0937 26.1884 37.31 26.3099 37.5689C26.4107 37.8745 26.4276 38.2049 26.3585 38.5205C26.2894 38.8361 26.1373 39.1238 25.9202 39.3492C25.1833 40.234 24.2338 40.8839 23.1756 41.2275V41.1741C23.137 41.0937 23.1037 41.0104 23.0761 40.9249C22.6698 39.2958 22.8854 38.0852 23.6317 37.3642Z" fill="white"/>
<path d="M81.4254 49.2303C79.5183 49.2303 78.4735 51.1086 78.2911 52.9245C78.2757 53.0357 78.2834 53.1492 78.3135 53.2569C78.3436 53.3646 78.3954 53.4639 78.4652 53.5476C78.544 53.6339 78.6383 53.7021 78.7423 53.748C78.8464 53.7939 78.958 53.8166 79.0705 53.8147C79.3007 53.8201 79.5241 53.731 79.6951 53.5655C79.8662 53.4001 79.972 53.1708 79.9909 52.9245C80.0904 52.0343 80.6377 51.0196 81.4751 51.0196C81.5759 51.0219 81.6761 51.0368 81.7736 51.0641C82.6857 51.2955 83.0091 52.3548 83.1169 53.1916C83.1276 53.3821 83.2074 53.5605 83.3391 53.6886C83.4708 53.8167 83.6441 53.8843 83.8217 53.877C83.9598 53.8758 84.096 53.8434 84.2217 53.7821C84.3474 53.7208 84.4597 53.6318 84.5514 53.5209C84.637 53.4163 84.7 53.2926 84.7359 53.1587C84.7717 53.0248 84.7795 52.884 84.7587 52.7465C84.7022 51.8221 84.3346 50.9512 83.7244 50.2961C83.1142 49.641 82.303 49.2464 81.442 49.1858" fill="white"/>
<path d="M58.0842 20.0681C55.2153 20.2194 51.6415 21.3856 50.9367 26.0679C50.834 26.8126 50.8846 27.5724 51.0852 28.2938C51.2858 29.0151 51.6314 29.6805 52.0976 30.2428C52.7167 31.0095 53.4802 31.6265 54.3378 32.0531C55.1954 32.4797 56.1275 32.7061 57.0726 32.7175V32.7175C58.7981 32.7888 60.4815 32.135 61.765 30.895C63.0486 29.6549 63.8312 27.9264 63.9464 26.0768C63.9649 25.346 63.8434 24.619 63.5896 23.9407C63.3357 23.2623 62.9548 22.6472 62.4705 22.1333C61.9053 21.4867 61.2235 20.9703 60.4666 20.6152C59.7098 20.2602 58.8936 20.0741 58.0676 20.0681H58.0842ZM58.1505 21.893C58.7991 21.9002 59.437 22.0706 60.0131 22.3907C60.5891 22.7107 61.0872 23.1714 61.4672 23.7356C61.8139 24.2407 62.0411 24.8287 62.1292 25.449C62.2173 26.0693 62.1637 26.7032 61.973 27.2963C61.6468 28.3777 61.0004 29.3151 60.1323 29.9659C59.2642 30.6167 58.2218 30.9452 57.1638 30.9015H56.7492C56.0536 30.8512 55.3765 30.6387 54.7651 30.279C54.1536 29.9193 53.6225 29.4209 53.2087 28.8185C52.9176 28.3753 52.7271 27.8652 52.6522 27.3289C52.5774 26.7926 52.6203 26.245 52.7775 25.7296C53.5072 23.2282 55.0909 22.0888 58.0925 21.9286L58.1505 21.893Z" fill="white"/>
<path d="M59.585 37.925C59.187 37.925 58.8636 37.925 58.5734 37.925C57.9847 37.925 56.8156 37.8538 55.3811 37.8538C50.3397 37.8538 44.237 38.4769 43.8307 41.4145C43.7934 41.6881 43.8095 41.9672 43.878 42.2338C43.9465 42.5005 44.0659 42.7489 44.2287 42.9634C44.7266 43.5882 45.4313 43.9808 46.1939 44.0583C46.61 44.1016 47.0279 44.1224 47.4459 44.1206C48.8828 44.0809 50.3154 43.9322 51.7327 43.6755C53.0112 43.4454 54.3016 43.2997 55.5967 43.2393H56.2932C58.5237 43.2393 60.7624 43.4708 62.9266 43.7022C64.4522 43.8624 66.0442 44.0227 67.6197 44.1117H68.1752C69.2697 44.1117 70.7705 43.9158 71.069 42.1711C71.1294 41.8594 71.1227 41.5369 71.0494 41.2284C70.9761 40.9199 70.8382 40.6334 70.6461 40.3908C68.8966 38.0852 62.3544 37.9606 59.6016 37.9072L59.585 37.925ZM62.2715 41.6815C60.2483 41.4857 58.3993 41.3877 56.6248 41.3877H55.5718C53.9135 41.3877 51.9649 41.4679 50.0827 41.6904L49.4276 41.7972C48.6454 41.962 47.8526 42.0632 47.0562 42.0999C46.3265 42.0999 46.1441 41.9308 46.0944 41.8239C46.0446 41.7171 46.0944 41.4768 46.3017 41.183C46.6914 40.6044 48.5404 40.3997 49.5354 40.2928L50.2071 40.2038C52.3798 39.842 54.5753 39.6605 56.7741 39.6608C57.3877 39.6608 58.0096 39.6608 58.6314 39.7053L59.7425 39.7498C61.4081 39.7748 63.0703 39.9205 64.7176 40.186H64.8668C67.7026 40.7023 68.3742 41.2186 68.4323 41.5658C68.4903 41.9129 68.1669 42.0821 67.8933 42.269C67.6321 42.389 67.3466 42.435 67.0641 42.4025C65.8761 42.3279 64.6952 42.1553 63.5318 41.8862C62.968 41.7705 62.5037 41.6726 62.2549 41.6459" fill="white"/>
<path d="M30.3567 51.4912C30.2141 51.4912 30.0743 51.5336 29.9528 51.6137C29.8313 51.6939 29.7329 51.8086 29.6685 51.9452C28.5677 53.9939 27.8794 56.2678 27.648 58.6199C27.4166 60.972 27.6473 63.35 28.3252 65.6004C28.3785 65.7897 28.4889 65.9545 28.639 66.0689C28.7891 66.1834 28.9705 66.2409 29.1544 66.2325C29.2956 66.2356 29.4355 66.2026 29.5624 66.136C29.6894 66.0694 29.7996 65.9712 29.8841 65.8497C29.9573 65.7438 30.0048 65.6199 30.0222 65.4894C30.0396 65.3588 30.0263 65.2256 29.9836 65.1019C29.3617 63.0881 29.1458 60.9553 29.3502 58.8451C29.5546 56.7349 30.1747 54.6954 31.1693 52.8621C31.2421 52.7267 31.2804 52.5732 31.2804 52.417C31.2804 52.2607 31.2421 52.1072 31.1693 51.9719C31.0825 51.8194 30.9607 51.6935 30.8155 51.6062C30.6703 51.5189 30.5066 51.4731 30.3401 51.4734" fill="white"/>
<path d="M32.6203 47.7882C32.5028 47.7835 32.3857 47.8076 32.278 47.8585C32.1703 47.9093 32.0747 47.9857 31.9985 48.0819C31.8609 48.2555 31.7872 48.4771 31.7912 48.705C31.7912 48.9411 31.8785 49.1675 32.034 49.3345C32.1895 49.5014 32.4004 49.5952 32.6203 49.5952C32.7368 49.5973 32.8524 49.573 32.9596 49.5239C33.0667 49.4748 33.163 49.4021 33.2422 49.3104C33.3772 49.1351 33.4506 48.9146 33.4495 48.6872C33.4495 48.4511 33.3622 48.2247 33.2067 48.0578C33.0512 47.8908 32.8403 47.7971 32.6203 47.7971" fill="white"/>
</svg>
