<svg width="44" height="43" viewBox="0 0 44 43" fill="none" xmlns="http://www.w3.org/2000/svg">
<mask id="mask0_906_1571" style="mask-type:alpha" maskUnits="userSpaceOnUse" x="0" y="0" width="44" height="43">
<circle cx="22.2698" cy="21.5" r="21.5" fill="#230B34"/>
</mask>
<g mask="url(#mask0_906_1571)">
<circle cx="22.2698" cy="21.5" r="20.5" stroke="#762CE6" stroke-width="2"/>
<mask id="path-3-inside-1_906_1571" fill="white">
<path d="M37.138 22.2539C36.8743 25.107 35.8036 27.826 34.051 30.0927C32.2984 32.3595 29.9366 34.0802 27.2417 35.0536C24.5469 36.027 21.6306 36.2128 18.834 35.5892C16.0374 34.9657 13.4763 33.5585 11.4502 31.5325C9.42419 29.5065 8.01707 26.9453 7.3935 24.1487C6.76993 21.3522 6.95571 18.4358 7.9291 15.741C8.9025 13.0462 10.6232 10.6843 12.89 8.93172C15.1567 7.17915 17.8757 6.10839 20.7288 5.84473C19.0584 8.10458 18.2546 10.8889 18.4636 13.6913C18.6726 16.4937 19.8805 19.128 21.8676 21.1151C23.8547 23.1022 26.489 24.3101 29.2914 24.5191C32.0938 24.7281 34.8781 23.9243 37.138 22.2539V22.2539Z"/>
</mask>
<path d="M20.7288 5.84473L34.8345 16.2711C38.9441 10.7112 39.4044 3.25583 36.0099 -2.76735C32.6153 -8.79054 25.9993 -12.2578 19.1147 -11.6216L20.7288 5.84473ZM19.6717 20.6398C19.7146 20.1753 19.8889 19.7327 20.1742 19.3637L47.9278 40.8218C51.7182 35.9193 54.0341 30.0386 54.6043 23.868L19.6717 20.6398ZM20.1742 19.3637C20.4595 18.9947 20.844 18.7146 21.2827 18.5561L33.2007 51.5511C39.0291 49.4459 44.1374 45.7243 47.9278 40.8218L20.1742 19.3637ZM21.2827 18.5561C21.7214 18.3977 22.1962 18.3674 22.6514 18.4689L15.0166 52.7095C21.0649 54.0582 27.3724 53.6564 33.2007 51.5511L21.2827 18.5561ZM22.6514 18.4689C23.1067 18.5704 23.5236 18.7995 23.8534 19.1293L-0.952948 43.9357C3.42895 48.3176 8.96817 51.3609 15.0166 52.7095L22.6514 18.4689ZM23.8534 19.1293C24.1832 19.4591 24.4123 19.8761 24.5138 20.3313L-9.72681 27.9662C-8.37816 34.0146 -5.33484 39.5538 -0.952948 43.9357L23.8534 19.1293ZM24.5138 20.3313C24.6153 20.7866 24.5851 21.2613 24.4266 21.7L-8.5684 9.782C-10.6737 15.6104 -11.0755 21.9178 -9.72681 27.9662L24.5138 20.3313ZM24.4266 21.7C24.2682 22.1387 23.988 22.5232 23.619 22.8085L2.16096 -4.94508C-2.74155 -1.15464 -6.46316 3.95363 -8.5684 9.782L24.4266 21.7ZM23.619 22.8085C23.25 23.0938 22.8074 23.2681 22.3429 23.311L19.1147 -11.6216C12.9441 -11.0513 7.06346 -8.73552 2.16096 -4.94508L23.619 22.8085ZM6.62319 -4.58162C2.45553 1.05675 0.450023 8.0037 0.971439 14.9958L35.9558 12.3869C36.0592 13.7741 35.6613 15.1524 34.8345 16.2711L6.62319 -4.58162ZM0.971439 14.9958C1.49285 21.9878 4.50655 28.5605 9.46441 33.5183L34.2708 8.71197C35.2544 9.69561 35.8523 10.9996 35.9558 12.3869L0.971439 14.9958ZM9.46441 33.5183C14.4223 38.4762 20.9949 41.4899 27.987 42.0113L30.5958 7.02694C31.9831 7.13039 33.2871 7.72831 34.2708 8.71197L9.46441 33.5183ZM27.987 42.0113C34.979 42.5327 41.926 40.5272 47.5643 36.3595L26.7117 8.14826C27.8303 7.32139 29.2086 6.92349 30.5958 7.02694L27.987 42.0113Z" fill="#762CE6" mask="url(#path-3-inside-1_906_1571)"/>
</g>
</svg>
