<svg width="225" height="225" viewBox="0 0 225 225" fill="none" xmlns="http://www.w3.org/2000/svg">
<mask id="mask0_39_1983" style="mask-type:alpha" maskUnits="userSpaceOnUse" x="0" y="0" width="225" height="225">
<circle cx="112.5" cy="112.5" r="112.5" fill="#230B34"/>
</mask>
<g mask="url(#mask0_39_1983)">
<circle cx="112.5" cy="112.5" r="112.5" fill="#230B34"/>
<path d="M148.589 137.044C158.535 137.786 168.442 136.394 177.678 133.053C175.211 139.873 171.688 146.303 167.208 152.098C159.056 162.641 148.071 170.644 135.537 175.172C123.003 179.699 109.438 180.563 96.431 177.663C83.4237 174.762 71.5114 168.218 62.088 158.794C52.6646 149.371 46.1198 137.458 43.2195 124.451C40.3191 111.444 41.1832 97.8795 45.7107 85.3454C50.2381 72.8113 58.2415 61.8257 68.7845 53.6743C74.5793 49.194 81.0096 45.6716 87.8295 43.2041C84.4879 52.4404 83.0966 62.3476 83.8382 72.293C85.088 89.0515 92.3112 104.805 104.194 116.688C116.077 128.571 131.831 135.794 148.589 137.044Z" stroke="#D500F9" stroke-width="17.5407" stroke-linecap="round" stroke-linejoin="round"/>
</g>
</svg>
