<svg width="120" height="120" viewBox="0 0 120 120" fill="none" xmlns="http://www.w3.org/2000/svg">
<rect width="120" height="120" fill="black"/>
<path d="M102.688 63.4639L16.0001 63.4639" stroke="white" stroke-width="5.73804" stroke-miterlimit="10" stroke-linecap="round"/>
<path d="M18.0205 25.2581V40.2276" stroke="white" stroke-width="5.61359" stroke-miterlimit="10" stroke-linecap="round"/>
<path d="M33.7064 48.2288H20.6152" stroke="white" stroke-width="5.61359" stroke-miterlimit="10" stroke-linecap="round"/>
<path d="M47.623 25L57.294 49.7772" stroke="white" stroke-width="5.61359" stroke-miterlimit="10" stroke-linecap="round"/>
<path d="M43.6323 38.4783H52.7714" stroke="white" stroke-width="5.61359" stroke-miterlimit="10" stroke-linecap="round"/>
<path d="M64.252 25.7744L77.8148 48.6159" stroke="white" stroke-width="5.61359" stroke-miterlimit="10" stroke-linecap="round"/>
<path d="M100.223 25.6453H84.7734" stroke="white" stroke-width="5.61359" stroke-miterlimit="10" stroke-linecap="round"/>
<path d="M100.371 36.8135H84.9209" stroke="white" stroke-width="5.61359" stroke-miterlimit="10" stroke-linecap="round"/>
<path d="M100.518 48.2034H85.0684" stroke="white" stroke-width="5.61359" stroke-miterlimit="10" stroke-linecap="round"/>
<path d="M13.3942 90.4639H10.4283L14.9474 77.373H18.5142L23.027 90.4639H20.0611L16.782 80.3644H16.6797L13.3942 90.4639ZM13.2088 85.3183H20.2145V87.4788H13.2088V85.3183ZM25.7215 90.4639V80.6457H28.3614V82.3588H28.4637C28.6427 81.7494 28.9431 81.2892 29.365 80.9781C29.7868 80.6627 30.2726 80.5051 30.8223 80.5051C30.9587 80.5051 31.1057 80.5136 31.2634 80.5306C31.4211 80.5477 31.5596 80.5711 31.6789 80.6009V83.0171C31.551 82.9788 31.3742 82.9447 31.1483 82.9149C30.9225 82.885 30.7158 82.8701 30.5283 82.8701C30.1277 82.8701 29.7698 82.9575 29.4544 83.1322C29.1434 83.3026 28.8962 83.5413 28.713 83.8481C28.534 84.1549 28.4445 84.5086 28.4445 84.9092V90.4639H25.7215ZM39.9712 80.6457V82.6911H34.0586V80.6457H39.9712ZM35.4009 78.2934H38.1239V87.4468C38.1239 87.6982 38.1623 87.8943 38.239 88.0349C38.3157 88.1713 38.4222 88.2671 38.5586 88.3225C38.6992 88.3779 38.8611 88.4056 39.0444 88.4056C39.1722 88.4056 39.3 88.395 39.4279 88.3737C39.5557 88.3481 39.6537 88.3289 39.7219 88.3161L40.1502 90.3424C40.0138 90.385 39.8221 90.434 39.5749 90.4894C39.3277 90.5491 39.0273 90.5853 38.6736 90.5981C38.0174 90.6237 37.4421 90.5363 36.9478 90.336C36.4577 90.1357 36.0763 89.8247 35.8036 89.4028C35.5309 88.9809 35.3966 88.4482 35.4009 87.8048V78.2934ZM52.9428 90.4639H48.3022V77.373H52.9811C54.2979 77.373 55.4314 77.635 56.3817 78.1592C57.332 78.6791 58.0628 79.4269 58.5742 80.4028C59.0898 81.3786 59.3476 82.5463 59.3476 83.9056C59.3476 85.2693 59.0898 86.4411 58.5742 87.4213C58.0628 88.4014 57.3277 89.1535 56.3689 89.6776C55.4144 90.2018 54.2723 90.4639 52.9428 90.4639ZM51.0699 88.0924H52.8277C53.6459 88.0924 54.3341 87.9475 54.8924 87.6578C55.4549 87.3637 55.8767 86.9099 56.158 86.2963C56.4435 85.6784 56.5863 84.8815 56.5863 83.9056C56.5863 82.9383 56.4435 82.1478 56.158 81.5342C55.8767 80.9205 55.457 80.4688 54.8988 80.1791C54.3405 79.8893 53.6523 79.7444 52.8341 79.7444H51.0699V88.0924ZM66.9912 90.6556C65.9812 90.6556 65.1119 90.4511 64.3832 90.042C63.6588 89.6286 63.1005 89.0448 62.7085 88.2906C62.3164 87.532 62.1204 86.635 62.1204 85.5995C62.1204 84.5896 62.3164 83.7032 62.7085 82.9404C63.1005 82.1776 63.6524 81.5832 64.364 81.157C65.0799 80.7309 65.9194 80.5178 66.8825 80.5178C67.5302 80.5178 68.1332 80.6222 68.6914 80.8311C69.2539 81.0356 69.744 81.3445 70.1616 81.7579C70.5835 82.1713 70.9116 82.6911 71.146 83.3176C71.3804 83.9397 71.4975 84.6684 71.4975 85.5036V86.2515H63.2071V84.564H68.9343C68.9343 84.172 68.8491 83.8247 68.6787 83.5221C68.5082 83.2195 68.2717 82.983 67.9691 82.8126C67.6708 82.6379 67.3235 82.5505 66.9272 82.5505C66.5139 82.5505 66.1474 82.6464 65.8278 82.8382C65.5125 83.0257 65.2653 83.2792 65.0863 83.5988C64.9073 83.9142 64.8157 84.2657 64.8115 84.6535V86.2579C64.8115 86.7437 64.901 87.1634 65.0799 87.5171C65.2632 87.8708 65.521 88.1436 65.8534 88.3353C66.1858 88.5271 66.5799 88.623 67.0359 88.623C67.3385 88.623 67.6154 88.5803 67.8669 88.4951C68.1183 88.4099 68.3335 88.282 68.5125 88.1116C68.6914 87.9411 68.8278 87.7323 68.9216 87.4852L71.44 87.6514C71.3122 88.2565 71.0501 88.7849 70.6538 89.2366C70.2618 89.684 69.7547 90.0335 69.1325 90.2849C68.5146 90.532 67.8008 90.6556 66.9912 90.6556ZM82.6136 83.4454L80.1207 83.5988C80.0781 83.3857 79.9864 83.194 79.8458 83.0235C79.7052 82.8488 79.5198 82.7103 79.2897 82.608C79.0639 82.5015 78.7933 82.4482 78.4779 82.4482C78.056 82.4482 77.7002 82.5377 77.4104 82.7167C77.1207 82.8914 76.9758 83.1258 76.9758 83.4198C76.9758 83.6542 77.0695 83.8524 77.257 84.0143C77.4445 84.1762 77.7663 84.3062 78.2222 84.4042L79.9992 84.7622C80.9538 84.9582 81.6654 85.2735 82.1342 85.7082C82.6029 86.1428 82.8373 86.7139 82.8373 87.4213C82.8373 88.0647 82.6477 88.6294 82.2684 89.1151C81.8934 89.6009 81.3778 89.9802 80.7215 90.2529C80.0695 90.5214 79.3174 90.6556 78.4651 90.6556C77.1654 90.6556 76.1299 90.385 75.3586 89.8438C74.5916 89.2984 74.142 88.5569 74.0099 87.6194L76.6881 87.4788C76.7691 87.8751 76.9651 88.1776 77.2762 88.3865C77.5873 88.591 77.9857 88.6933 78.4715 88.6933C78.9488 88.6933 79.3323 88.6017 79.6221 88.4184C79.9161 88.2309 80.0653 87.9901 80.0695 87.6961C80.0653 87.449 79.9609 87.2465 79.7563 87.0889C79.5518 86.9269 79.2364 86.8034 78.8103 86.7181L77.11 86.3793C76.1512 86.1876 75.4374 85.8552 74.9687 85.3822C74.5042 84.9092 74.272 84.3062 74.272 83.5732C74.272 82.9426 74.4424 82.3992 74.7833 81.9433C75.1285 81.4873 75.6122 81.1357 76.2343 80.8886C76.8607 80.6414 77.5937 80.5178 78.4332 80.5178C79.6732 80.5178 80.6491 80.7799 81.3607 81.3041C82.0766 81.8282 82.4943 82.542 82.6136 83.4454ZM85.722 90.4639V80.6457H88.445V90.4639H85.722ZM87.0899 79.3801C86.685 79.3801 86.3377 79.2458 86.048 78.9774C85.7624 78.7046 85.6197 78.3786 85.6197 77.9994C85.6197 77.6244 85.7624 77.3026 86.048 77.0342C86.3377 76.7615 86.685 76.6251 87.0899 76.6251C87.4947 76.6251 87.8399 76.7615 88.1254 77.0342C88.4151 77.3026 88.56 77.6244 88.56 77.9994C88.56 78.3786 88.4151 78.7046 88.1254 78.9774C87.8399 79.2458 87.4947 79.3801 87.0899 79.3801ZM96.2196 94.3502C95.3375 94.3502 94.5811 94.2288 93.9504 93.9859C93.324 93.7472 92.8254 93.4213 92.4546 93.0079C92.0839 92.5945 91.8431 92.1301 91.7323 91.6144L94.2508 91.2757C94.3275 91.4717 94.449 91.6549 94.6151 91.8254C94.7813 91.9958 95.0008 92.1322 95.2735 92.2345C95.5505 92.341 95.8872 92.3943 96.2835 92.3943C96.8758 92.3943 97.3637 92.2494 97.7473 91.9596C98.135 91.6741 98.3289 91.1947 98.3289 90.5214V88.7252H98.2139C98.0946 88.998 97.9156 89.2558 97.6769 89.4987C97.4383 89.7416 97.1315 89.9397 96.7565 90.0931C96.3815 90.2465 95.934 90.3232 95.4142 90.3232C94.6769 90.3232 94.0058 90.1528 93.4007 89.8119C92.7998 89.4667 92.3204 88.9404 91.9625 88.233C91.6088 87.5214 91.4319 86.6222 91.4319 85.5356C91.4319 84.4234 91.613 83.4944 91.9752 82.7487C92.3375 82.0029 92.819 81.4447 93.4198 81.074C94.025 80.7032 94.6876 80.5178 95.4078 80.5178C95.9575 80.5178 96.4177 80.6116 96.7884 80.7991C97.1592 80.9823 97.4575 81.2124 97.6833 81.4894C97.9134 81.7622 98.0903 82.0306 98.2139 82.2948H98.3161V80.6457H101.02V90.5597C101.02 91.395 100.815 92.0938 100.406 92.6563C99.9973 93.2188 99.4305 93.6407 98.7061 93.922C97.9859 94.2075 97.1571 94.3502 96.2196 94.3502ZM96.2771 88.2778C96.716 88.2778 97.0867 88.1691 97.3893 87.9518C97.6961 87.7302 97.9305 87.4149 98.0924 87.0058C98.2586 86.5924 98.3417 86.0981 98.3417 85.5228C98.3417 84.9475 98.2607 84.449 98.0988 84.0271C97.9369 83.6009 97.7025 83.2707 97.3957 83.0363C97.0889 82.8019 96.716 82.6847 96.2771 82.6847C95.8296 82.6847 95.4525 82.8062 95.1457 83.0491C94.8389 83.2877 94.6066 83.6201 94.449 84.0463C94.2913 84.4724 94.2125 84.9646 94.2125 85.5228C94.2125 86.0896 94.2913 86.5796 94.449 86.993C94.6109 87.4021 94.8431 87.7195 95.1457 87.9454C95.4525 88.167 95.8296 88.2778 96.2771 88.2778ZM107.08 84.7877V90.4639H104.357V80.6457H106.952V82.3779H107.067C107.284 81.8069 107.649 81.3552 108.16 81.0228C108.672 80.6862 109.292 80.5178 110.02 80.5178C110.702 80.5178 111.297 80.667 111.804 80.9653C112.311 81.2636 112.705 81.6897 112.986 82.2437C113.267 82.7934 113.408 83.4497 113.408 84.2124V90.4639H110.685V84.6982C110.689 84.0974 110.536 83.6286 110.225 83.292C109.914 82.9511 109.485 82.7806 108.94 82.7806C108.574 82.7806 108.25 82.8595 107.968 83.0171C107.691 83.1748 107.474 83.4049 107.316 83.7075C107.163 84.0058 107.084 84.3659 107.08 84.7877Z" fill="white"/>
</svg>
