<svg width="49" height="50" viewBox="0 0 49 50" fill="none" xmlns="http://www.w3.org/2000/svg">
<path d="M22.1746 17.3301C21.741 17.3301 21.3271 17.4286 20.933 17.6256C20.4403 17.9013 20.0462 18.3347 19.8294 18.8468C19.6915 19.2014 19.4747 20.2651 19.4747 20.2848C19.2579 21.4469 19.1396 23.3379 19.1396 25.4259C19.1396 27.4173 19.2579 29.2275 19.4353 30.4094C19.455 30.4291 19.6717 31.7488 19.9082 32.2019C20.3418 33.0292 21.1892 33.5413 22.0957 33.5413H22.1746C22.7658 33.5216 24.0073 33.0095 24.0073 32.9898C26.0963 32.1231 30.2151 29.4245 31.8705 27.632L31.9887 27.5138C32.2055 27.2971 32.4814 26.9623 32.5405 26.8835C32.8559 26.4698 33.0135 25.9577 33.0135 25.4475C33.0135 24.8743 32.8362 24.3425 32.5011 23.9091C32.4223 23.8303 32.1267 23.4955 31.8508 23.2197C30.2348 21.4863 26.0175 18.6499 23.8103 17.7832C23.4752 17.6472 22.6278 17.3498 22.1746 17.3301Z" fill="#D500F9"/>
<path fill-rule="evenodd" clip-rule="evenodd" d="M24.5 5.01904C35.7528 5.01904 44.9167 14.1785 44.9167 25.4475C44.9167 36.6929 35.7528 45.8524 24.5 45.8524C13.2472 45.8524 4.08334 36.6929 4.08334 25.4475C4.08334 14.1785 13.2472 5.01904 24.5 5.01904ZM20.933 17.6256C21.3271 17.4286 21.741 17.3301 22.1746 17.3301C22.6278 17.3498 23.4752 17.6472 23.8103 17.7832C26.0175 18.6499 30.2348 21.4863 31.8508 23.2197C32.1267 23.4955 32.4223 23.8303 32.5011 23.9091C32.8362 24.3425 33.0135 24.8743 33.0135 25.4475C33.0135 25.9577 32.8559 26.4698 32.5405 26.8835C32.4814 26.9623 32.2055 27.2971 31.9887 27.5138L31.8705 27.632C30.2151 29.4245 26.0963 32.1231 24.0073 32.9898C24.0073 33.0095 22.7658 33.5216 22.1746 33.5413H22.0957C21.1892 33.5413 20.3418 33.0292 19.9082 32.2019C19.6717 31.7488 19.455 30.4291 19.4353 30.4094C19.2579 29.2275 19.1396 27.4173 19.1396 25.4259C19.1396 23.3379 19.2579 21.4469 19.4747 20.2848C19.4747 20.2651 19.6915 19.2014 19.8294 18.8468C20.0462 18.3347 20.4403 17.9013 20.933 17.6256Z" fill="white" fill-opacity="0.02"/>
<path d="M22.1746 17.3301L22.1985 16.7785L22.1865 16.778H22.1746V17.3301ZM20.933 17.6256L20.6862 17.1317L20.6746 17.1375L20.6634 17.1438L20.933 17.6256ZM19.8294 18.8468L19.321 18.6316L19.3178 18.6391L19.3149 18.6466L19.8294 18.8468ZM19.4747 20.2848L20.0174 20.386L20.0268 20.3358V20.2848H19.4747ZM19.4353 30.4094L18.8893 30.4913L18.9163 30.6712L19.045 30.7999L19.4353 30.4094ZM19.9082 32.2019L19.4188 32.4573L19.4192 32.4581L19.9082 32.2019ZM22.1746 33.5413V34.0934H22.1838L22.1929 34.0931L22.1746 33.5413ZM24.0073 32.9898L23.7958 32.4798L23.4552 32.6211V32.9898H24.0073ZM31.8705 27.632L31.4802 27.2415L31.4724 27.2493L31.4649 27.2574L31.8705 27.632ZM31.9887 27.5138L31.5985 27.1233H31.5985L31.9887 27.5138ZM32.5405 26.8835L32.1015 26.5488L32.099 26.5521L32.5405 26.8835ZM32.5011 23.9091L32.9379 23.5715L32.9164 23.5436L32.8914 23.5187L32.5011 23.9091ZM31.8508 23.2197L31.447 23.5962L31.4536 23.6033L31.4605 23.6102L31.8508 23.2197ZM23.8103 17.7832L23.6027 18.2948L23.6085 18.297L23.8103 17.7832ZM24.5 5.57113C35.4478 5.57113 44.3646 14.4832 44.3646 25.4475H45.4688C45.4688 13.8737 36.0579 4.46696 24.5 4.46696V5.57113ZM44.3646 25.4475C44.3646 36.3878 35.4482 45.3003 24.5 45.3003V46.4045C36.0574 46.4045 45.4688 36.9981 45.4688 25.4475H44.3646ZM24.5 45.3003C13.5518 45.3003 4.63543 36.3878 4.63543 25.4475H3.53126C3.53126 36.9981 12.9426 46.4045 24.5 46.4045V45.3003ZM4.63543 25.4475C4.63543 14.4832 13.5522 5.57113 24.5 5.57113V4.46696C12.9422 4.46696 3.53126 13.8737 3.53126 25.4475H4.63543ZM22.1746 16.778C21.6539 16.778 21.1557 16.8971 20.6862 17.1317L21.1798 18.1194C21.4986 17.9601 21.8281 17.8822 22.1746 17.8822V16.778ZM20.6634 17.1438C20.0673 17.4775 19.5871 18.0029 19.321 18.6316L20.3378 19.062C20.5052 18.6665 20.8134 18.3252 21.2027 18.1073L20.6634 17.1438ZM19.3149 18.6466C19.2285 18.8687 19.1315 19.2647 19.0621 19.5684C19.0255 19.7287 18.9933 19.8781 18.9702 19.9892C18.9587 20.0446 18.9492 20.0914 18.9425 20.1258C18.9391 20.1428 18.9362 20.1583 18.9339 20.1709C18.9328 20.1769 18.9314 20.1849 18.9301 20.1931C18.9295 20.1969 18.9284 20.2039 18.9273 20.2124C18.9268 20.2165 18.9259 20.2237 18.925 20.2325C18.9245 20.2383 18.9226 20.2587 18.9226 20.2848H20.0268C20.0268 20.3105 20.0249 20.3305 20.0244 20.3357C20.0236 20.344 20.0228 20.3504 20.0224 20.3538C20.0215 20.3606 20.0207 20.3655 20.0205 20.3668C20.02 20.3698 20.0199 20.3705 20.0204 20.3676C20.0213 20.3623 20.0232 20.3526 20.0261 20.3379C20.0317 20.309 20.0403 20.2667 20.0512 20.2141C20.0731 20.1091 20.1037 19.9668 20.1385 19.8143C20.212 19.4927 20.2923 19.1795 20.3439 19.047L19.3149 18.6466ZM18.9319 20.1835C18.7057 21.3963 18.5876 23.3276 18.5876 25.4259H19.6917C19.6917 23.3482 19.81 21.4976 20.0174 20.386L18.9319 20.1835ZM18.5876 25.4259C18.5876 27.4337 18.7065 29.2733 18.8893 30.4913L19.9812 30.3274C19.8093 29.1817 19.6917 27.4009 19.6917 25.4259H18.5876ZM19.045 30.7999C18.995 30.7499 18.9668 30.7021 18.9563 30.6839C18.9431 30.6607 18.9343 30.6412 18.9295 30.6301C18.92 30.6081 18.9142 30.5906 18.9122 30.5843C18.9096 30.5762 18.9079 30.5702 18.9072 30.5675C18.9063 30.5645 18.9059 30.5626 18.9058 30.5623C18.9057 30.5618 18.9061 30.5637 18.9073 30.5688C18.9084 30.5737 18.9098 30.5802 18.9116 30.5885C18.919 30.6233 18.9292 30.6743 18.9429 30.7426C18.9697 30.8761 19.007 31.062 19.0514 31.2626C19.1339 31.6347 19.2605 32.154 19.4188 32.4573L20.3976 31.9464C20.3195 31.7967 20.2194 31.4296 20.1295 31.0237C20.0877 30.8352 20.0523 30.6592 20.0255 30.5255C20.0124 30.4603 20.0006 30.4014 19.9915 30.3585C19.9871 30.3378 19.9819 30.3143 19.9767 30.2933C19.9743 30.2838 19.9697 30.2659 19.9631 30.2456C19.9601 30.2362 19.9535 30.2163 19.9432 30.1924C19.9429 30.1917 19.908 30.1013 19.8255 30.0189L19.045 30.7999ZM19.4192 32.4581C19.9466 33.4644 20.9806 34.0934 22.0957 34.0934V32.9892C21.3978 32.9892 20.737 32.5939 20.3972 31.9456L19.4192 32.4581ZM22.0957 34.0934H22.1746V32.9892H22.0957V34.0934ZM22.1929 34.0931C22.5827 34.0801 23.1147 33.9182 23.4932 33.7873C23.6949 33.7175 23.8778 33.6475 24.0121 33.5929C24.0787 33.5658 24.1368 33.5411 24.1809 33.5211C24.2017 33.5116 24.2264 33.5001 24.2494 33.4881C24.2589 33.4831 24.281 33.4714 24.3058 33.4552C24.3161 33.4485 24.3452 33.4292 24.3778 33.3996C24.3934 33.3854 24.4258 33.3546 24.4582 33.3086C24.4825 33.2742 24.5594 33.1594 24.5594 32.9898H23.4552C23.4552 32.8205 23.532 32.706 23.556 32.6721C23.5881 32.6265 23.6201 32.5961 23.6351 32.5825C23.6665 32.554 23.6938 32.5361 23.7017 32.5309C23.7218 32.5178 23.7369 32.5101 23.7371 32.5099C23.7416 32.5076 23.739 32.5091 23.7247 32.5156C23.6986 32.5274 23.6551 32.5461 23.5961 32.5701C23.4792 32.6176 23.3146 32.6807 23.1321 32.7438C22.7421 32.8788 22.3576 32.9828 22.1562 32.9895L22.1929 34.0931ZM24.2189 33.4997C25.3127 33.0459 26.8995 32.1315 28.4095 31.1162C29.9172 30.1025 31.4038 28.9511 32.2761 28.0066L31.4649 27.2574C30.6818 28.1054 29.2813 29.1995 27.7935 30.1999C26.308 31.1987 24.791 32.0669 23.7958 32.4798L24.2189 33.4997ZM32.2608 28.0225L32.379 27.9043L31.5985 27.1233L31.4802 27.2415L32.2608 28.0225ZM32.379 27.9043C32.6172 27.6662 32.91 27.311 32.9821 27.2148L32.099 26.5521C32.0528 26.6136 31.7938 26.928 31.5985 27.1233L32.379 27.9043ZM32.9796 27.2182C33.3741 26.7007 33.5656 26.0687 33.5656 25.4475H32.4614C32.4614 25.8467 32.3377 26.239 32.1015 26.5488L32.9796 27.2182ZM33.5656 25.4475C33.5656 24.758 33.3512 24.106 32.9379 23.5715L32.0644 24.2468C32.3211 24.5789 32.4614 24.9907 32.4614 25.4475H33.5656ZM32.8914 23.5187C32.8624 23.4897 32.7848 23.4038 32.6554 23.2637C32.536 23.1344 32.3871 22.9752 32.2411 22.8292L31.4605 23.6102C31.5904 23.74 31.7272 23.8861 31.8443 24.0129C31.9514 24.1289 32.061 24.2498 32.1108 24.2996L32.8914 23.5187ZM32.2546 22.8433C31.4033 21.9301 29.9035 20.7598 28.3611 19.7188C26.818 18.6774 25.1723 17.7249 24.012 17.2693L23.6085 18.297C24.6554 18.7081 26.222 19.6072 27.7434 20.634C29.2655 21.6613 30.6823 22.7759 31.447 23.5962L32.2546 22.8433ZM24.0178 17.2716C23.8351 17.1975 23.5236 17.0834 23.1965 16.9846C22.8834 16.89 22.5004 16.7917 22.1985 16.7785L22.1506 17.8817C22.302 17.8882 22.5693 17.9485 22.877 18.0415C23.1707 18.1303 23.4503 18.2329 23.6027 18.2947L24.0178 17.2716Z" fill="#D500F9"/>
</svg>
