<svg width="31" height="30" viewBox="0 0 31 30" fill="none" xmlns="http://www.w3.org/2000/svg">
<rect x="0.500549" width="30" height="30" rx="12" fill="#FF8700"/>
<path d="M19.1138 16.8854C18.9592 17.0352 18.8881 17.252 18.9234 17.4645L19.4541 20.402C19.4989 20.651 19.3938 20.903 19.1855 21.0469C18.9813 21.1961 18.7096 21.214 18.4869 21.0946L15.8425 19.7154C15.7506 19.6665 15.6485 19.6402 15.544 19.6372H15.3822C15.3261 19.6456 15.2711 19.6635 15.221 19.6909L12.576 21.0767C12.4453 21.1424 12.2972 21.1657 12.1521 21.1424C11.7987 21.0755 11.5628 20.7388 11.6207 20.3835L12.1521 17.446C12.1873 17.2317 12.1163 17.0137 11.9617 16.8615L9.80567 14.7718C9.62536 14.5968 9.56267 14.3341 9.64506 14.0971C9.72507 13.8607 9.92926 13.6881 10.1758 13.6493L13.1432 13.2188C13.3689 13.1955 13.5671 13.0582 13.6686 12.8552L14.9762 10.1744C15.0072 10.1147 15.0473 10.0598 15.0956 10.0132L15.1493 9.97142C15.1774 9.94037 15.2097 9.9147 15.2455 9.8938L15.3106 9.86992L15.4121 9.82812H15.6634C15.8879 9.85141 16.0855 9.98575 16.1888 10.1864L17.5137 12.8552C17.6092 13.0505 17.7949 13.186 18.0093 13.2188L20.9766 13.6493C21.2274 13.6851 21.437 13.8583 21.52 14.0971C21.5982 14.3365 21.5307 14.5992 21.3468 14.7718L19.1138 16.8854Z" fill="#230B34"/>
</svg>
