<svg width="50" height="50" viewBox="0 0 50 50" fill="none" xmlns="http://www.w3.org/2000/svg">
<path d="M47.7148 24.4336L38.2812 20.8984V10.3027C38.2812 8.83789 37.373 7.5293 35.9961 7.01172L26.2305 3.34961C25.4395 3.04687 24.5605 3.04687 23.7598 3.34961L13.9941 7.01172C12.6172 7.5293 11.709 8.83789 11.709 10.3027V20.8984L2.27539 24.4336C0.908203 24.9512 0 26.2598 0 27.7246V38.4766C0 39.8047 0.751953 41.0254 1.94336 41.6211L11.709 46.5039C12.6953 47.002 13.8672 47.002 14.8535 46.5039L25 41.4258L35.1465 46.5039C36.1328 47.002 37.3047 47.002 38.291 46.5039L48.0566 41.6211C49.248 41.0254 50 39.8047 50 38.4766V27.7246C50 26.2598 49.0918 24.9512 47.7148 24.4336V24.4336ZM34.9609 20.9766L26.6602 24.0918V17.4316L34.9609 13.8184V20.9766ZM15.0391 10.166L25 6.43555L34.9609 10.166V10.2246L25 14.2676L15.0391 10.2246V10.166ZM23.2422 38.5937L14.9414 42.7441V35.0195L23.2422 31.2305V38.5937ZM23.2422 27.6562L13.2812 31.6992L3.32031 27.6562V27.5977L13.2812 23.8672L23.2422 27.5977V27.6562ZM46.6797 38.5937L38.3789 42.7441V35.0195L46.6797 31.2305V38.5937ZM46.6797 27.6562L36.7188 31.6992L26.7578 27.6562V27.5977L36.7188 23.8672L46.6797 27.5977V27.6562Z" fill="#762CE6"/>
</svg>
